<svg width="101" height="25" viewBox="0 0 101 25" fill="none" xmlns="http://www.w3.org/2000/svg">
<path d="M12 3C7.05 3 3 7.05 3 12C3 16.95 7.05 21 12 21C16.95 21 21 16.95 21 12C21 7.05 16.95 3 12 3ZM14.7 12.9H12C11.46 12.9 11.1 12.54 11.1 12V7.5C11.1 6.96 11.46 6.6 12 6.6C12.54 6.6 12.9 6.96 12.9 7.5V11.1H14.7C15.24 11.1 15.6 11.46 15.6 12C15.6 12.54 15.24 12.9 14.7 12.9Z" fill="#70737C"/>
<path d="M35.038 17.314V9.362L35.556 9.754L33.624 10.776L33.218 9.46L35.836 8.06H36.564V17.314H35.038ZM33.484 18V16.544H38.16V18H33.484ZM40.302 18L39.84 16.852L42.836 13.478C42.9947 13.31 43.158 13.1187 43.326 12.904C43.5033 12.68 43.6713 12.4513 43.83 12.218C43.9887 11.9847 44.1147 11.756 44.208 11.532C44.3107 11.2987 44.362 11.0793 44.362 10.874C44.362 10.5753 44.3013 10.3233 44.18 10.118C44.068 9.90333 43.9 9.74 43.676 9.628C43.4613 9.516 43.2 9.46 42.892 9.46C42.6213 9.46 42.3553 9.53933 42.094 9.698C41.8327 9.85667 41.5947 10.0807 41.38 10.37C41.1653 10.6593 40.9973 10.9953 40.876 11.378L39.714 10.65C39.8727 10.1087 40.1107 9.64667 40.428 9.264C40.7547 8.872 41.142 8.57333 41.59 8.368C42.0473 8.16267 42.542 8.06 43.074 8.06C43.6247 8.06 44.1147 8.17667 44.544 8.41C44.9733 8.634 45.3093 8.95133 45.552 9.362C45.7947 9.76333 45.916 10.23 45.916 10.762C45.916 10.9767 45.8927 11.196 45.846 11.42C45.7993 11.644 45.7247 11.8773 45.622 12.12C45.5193 12.3533 45.3887 12.6007 45.23 12.862C45.0713 13.114 44.88 13.38 44.656 13.66C44.4413 13.94 44.194 14.234 43.914 14.542L41.688 16.964L41.408 16.544H46.224V18H40.302ZM48.2659 18.154C47.9579 18.154 47.7199 18.0653 47.5519 17.888C47.3839 17.7013 47.2999 17.44 47.2999 17.104C47.2999 16.796 47.3886 16.544 47.5659 16.348C47.7433 16.152 47.9766 16.054 48.2659 16.054C48.5739 16.054 48.8119 16.1473 48.9799 16.334C49.1479 16.5113 49.2319 16.768 49.2319 17.104C49.2319 17.412 49.1433 17.664 48.9659 17.86C48.7886 18.056 48.5553 18.154 48.2659 18.154ZM54.0975 18.14C53.3508 18.14 52.7068 17.9347 52.1655 17.524C51.6335 17.1133 51.2228 16.5347 50.9335 15.788C50.6441 15.032 50.4995 14.136 50.4995 13.1C50.4995 12.064 50.6441 11.1727 50.9335 10.426C51.2228 9.67 51.6335 9.08667 52.1655 8.676C52.7068 8.26533 53.3508 8.06 54.0975 8.06C54.8441 8.06 55.4881 8.26533 56.0295 8.676C56.5708 9.08667 56.9861 9.67 57.2755 10.426C57.5648 11.1727 57.7095 12.064 57.7095 13.1C57.7095 14.136 57.5648 15.032 57.2755 15.788C56.9861 16.5347 56.5708 17.1133 56.0295 17.524C55.4881 17.9347 54.8441 18.14 54.0975 18.14ZM54.0975 16.768C54.7788 16.768 55.3061 16.4507 55.6795 15.816C56.0528 15.172 56.2395 14.2667 56.2395 13.1C56.2395 11.9333 56.0528 11.0327 55.6795 10.398C55.3061 9.754 54.7788 9.432 54.0975 9.432C53.4161 9.432 52.8888 9.754 52.5155 10.398C52.1421 11.0327 51.9555 11.9333 51.9555 13.1C51.9555 14.2667 52.1421 15.172 52.5155 15.816C52.8888 16.4507 53.4161 16.768 54.0975 16.768ZM61.5514 18L61.4954 17.86L64.4074 11.672L64.4494 12.834C64.2814 13.114 64.0947 13.3613 63.8894 13.576C63.6934 13.7907 63.474 13.9773 63.2314 14.136C62.998 14.2853 62.7554 14.402 62.5034 14.486C62.2514 14.5607 61.9947 14.598 61.7334 14.598C61.2014 14.598 60.7114 14.458 60.2634 14.178C59.8154 13.898 59.456 13.5247 59.1854 13.058C58.9147 12.5913 58.7794 12.0827 58.7794 11.532C58.7794 10.8693 58.9287 10.2767 59.2274 9.754C59.526 9.222 59.932 8.802 60.4454 8.494C60.968 8.186 61.5514 8.032 62.1954 8.032C62.662 8.032 63.1007 8.116 63.5114 8.284C63.922 8.452 64.2814 8.69 64.5894 8.998C64.8974 9.29667 65.14 9.64667 65.3174 10.048C65.4947 10.44 65.5834 10.86 65.5834 11.308C65.5834 11.5413 65.56 11.7933 65.5134 12.064C65.4667 12.3253 65.3874 12.624 65.2754 12.96C65.1727 13.2867 65.0327 13.6647 64.8554 14.094C64.678 14.514 64.4587 15.004 64.1974 15.564L63.0354 18H61.5514ZM62.0554 13.198C62.4194 13.198 62.746 13.1187 63.0354 12.96C63.3247 12.792 63.5487 12.5727 63.7074 12.302C63.8754 12.022 63.9594 11.7093 63.9594 11.364C63.9594 11 63.88 10.6733 63.7214 10.384C63.5627 10.0853 63.3387 9.852 63.0494 9.684C62.7694 9.516 62.4474 9.432 62.0834 9.432C61.7474 9.432 61.4487 9.516 61.1874 9.684C60.926 9.84267 60.716 10.0667 60.5574 10.356C60.408 10.636 60.3334 10.9673 60.3334 11.35C60.3334 11.6767 60.408 11.98 60.5574 12.26C60.716 12.54 60.926 12.7687 61.1874 12.946C61.4487 13.114 61.738 13.198 62.0554 13.198ZM67.6663 18.154C67.3583 18.154 67.1203 18.0653 66.9523 17.888C66.7843 17.7013 66.7003 17.44 66.7003 17.104C66.7003 16.796 66.789 16.544 66.9663 16.348C67.1436 16.152 67.377 16.054 67.6663 16.054C67.9743 16.054 68.2123 16.1473 68.3803 16.334C68.5483 16.5113 68.6323 16.768 68.6323 17.104C68.6323 17.412 68.5436 17.664 68.3663 17.86C68.189 18.056 67.9556 18.154 67.6663 18.154ZM70.5579 18L70.0959 16.852L73.0919 13.478C73.2505 13.31 73.4139 13.1187 73.5819 12.904C73.7592 12.68 73.9272 12.4513 74.0859 12.218C74.2445 11.9847 74.3705 11.756 74.4639 11.532C74.5665 11.2987 74.6179 11.0793 74.6179 10.874C74.6179 10.5753 74.5572 10.3233 74.4359 10.118C74.3239 9.90333 74.1559 9.74 73.9319 9.628C73.7172 9.516 73.4559 9.46 73.1479 9.46C72.8772 9.46 72.6112 9.53933 72.3499 9.698C72.0885 9.85667 71.8505 10.0807 71.6359 10.37C71.4212 10.6593 71.2532 10.9953 71.1319 11.378L69.9699 10.65C70.1285 10.1087 70.3665 9.64667 70.6839 9.264C71.0105 8.872 71.3979 8.57333 71.8459 8.368C72.3032 8.16267 72.7979 8.06 73.3299 8.06C73.8805 8.06 74.3705 8.17667 74.7999 8.41C75.2292 8.634 75.5652 8.95133 75.8079 9.362C76.0505 9.76333 76.1719 10.23 76.1719 10.762C76.1719 10.9767 76.1485 11.196 76.1019 11.42C76.0552 11.644 75.9805 11.8773 75.8779 12.12C75.7752 12.3533 75.6445 12.6007 75.4859 12.862C75.3272 13.114 75.1359 13.38 74.9119 13.66C74.6972 13.94 74.4499 14.234 74.1699 14.542L71.9439 16.964L71.6639 16.544H76.4799V18H70.5579ZM81.1678 18.14C80.4211 18.14 79.7771 17.9347 79.2358 17.524C78.7038 17.1133 78.2931 16.5347 78.0038 15.788C77.7144 15.032 77.5698 14.136 77.5698 13.1C77.5698 12.064 77.7144 11.1727 78.0038 10.426C78.2931 9.67 78.7038 9.08667 79.2358 8.676C79.7771 8.26533 80.4211 8.06 81.1678 8.06C81.9144 8.06 82.5584 8.26533 83.0998 8.676C83.6411 9.08667 84.0564 9.67 84.3458 10.426C84.6351 11.1727 84.7798 12.064 84.7798 13.1C84.7798 14.136 84.6351 15.032 84.3458 15.788C84.0564 16.5347 83.6411 17.1133 83.0998 17.524C82.5584 17.9347 81.9144 18.14 81.1678 18.14ZM81.1678 16.768C81.8491 16.768 82.3764 16.4507 82.7498 15.816C83.1231 15.172 83.3098 14.2667 83.3098 13.1C83.3098 11.9333 83.1231 11.0327 82.7498 10.398C82.3764 9.754 81.8491 9.432 81.1678 9.432C80.4864 9.432 79.9591 9.754 79.5858 10.398C79.2124 11.0327 79.0258 11.9333 79.0258 13.1C79.0258 14.2667 79.2124 15.172 79.5858 15.816C79.9591 16.4507 80.4864 16.768 81.1678 16.768ZM86.7317 18L86.2697 16.852L89.2657 13.478C89.4244 13.31 89.5877 13.1187 89.7557 12.904C89.933 12.68 90.101 12.4513 90.2597 12.218C90.4184 11.9847 90.5444 11.756 90.6377 11.532C90.7404 11.2987 90.7917 11.0793 90.7917 10.874C90.7917 10.5753 90.731 10.3233 90.6097 10.118C90.4977 9.90333 90.3297 9.74 90.1057 9.628C89.891 9.516 89.6297 9.46 89.3217 9.46C89.051 9.46 88.785 9.53933 88.5237 9.698C88.2624 9.85667 88.0244 10.0807 87.8097 10.37C87.595 10.6593 87.427 10.9953 87.3057 11.378L86.1437 10.65C86.3024 10.1087 86.5404 9.64667 86.8577 9.264C87.1844 8.872 87.5717 8.57333 88.0197 8.368C88.477 8.16267 88.9717 8.06 89.5037 8.06C90.0544 8.06 90.5444 8.17667 90.9737 8.41C91.403 8.634 91.739 8.95133 91.9817 9.362C92.2244 9.76333 92.3457 10.23 92.3457 10.762C92.3457 10.9767 92.3224 11.196 92.2757 11.42C92.229 11.644 92.1544 11.8773 92.0517 12.12C91.949 12.3533 91.8184 12.6007 91.6597 12.862C91.501 13.114 91.3097 13.38 91.0857 13.66C90.871 13.94 90.6237 14.234 90.3437 14.542L88.1177 16.964L87.8377 16.544H92.6537V18H86.7317ZM96.1376 17.314V9.362L96.6556 9.754L94.7236 10.776L94.3176 9.46L96.9356 8.06H97.6636V17.314H96.1376ZM94.5836 18V16.544H99.2596V18H94.5836Z" fill="#70737C"/>
</svg>
