<svg width="30" height="30" viewBox="0 0 30 30" fill="none" xmlns="http://www.w3.org/2000/svg">
<path d="M2 15C2 20.5499 5.47858 25.2884 10.3742 27.1528C10.255 26.1378 10.1283 24.464 10.4013 23.2897C10.6363 22.28 11.919 16.8568 11.919 16.8568C11.919 16.8568 11.5323 16.0822 11.5323 14.935C11.5323 13.1367 12.5744 11.7933 13.8733 11.7933C14.9783 11.7933 15.5113 12.6221 15.5113 13.6155C15.5113 14.7259 14.8039 16.3856 14.4388 17.925C14.1344 19.2131 15.0856 20.2639 16.3553 20.2639C18.6552 20.2639 20.4243 17.8383 20.4243 14.337C20.4243 11.2376 18.1969 9.072 15.0173 9.072C11.3362 9.072 9.17492 11.8334 9.17492 14.688C9.17492 15.8006 9.60283 16.9923 10.138 17.6412C10.1836 17.6902 10.2159 17.7501 10.2316 17.8152C10.2474 17.8803 10.2461 17.9483 10.2279 18.0128C10.1293 18.4223 9.9105 19.3008 9.86825 19.4807C9.81083 19.7168 9.68083 19.7677 9.43492 19.6529C7.81858 18.9011 6.80892 16.5383 6.80892 14.6403C6.80892 10.5573 9.774 6.80892 15.3586 6.80892C19.8479 6.80892 23.3373 10.008 23.3373 14.2828C23.3373 18.7429 20.5261 22.3331 16.6217 22.3331C15.3098 22.3331 14.0781 21.6506 13.6556 20.8457C13.6556 20.8457 13.0067 23.3178 12.8496 23.9223C12.5441 25.0967 11.6969 26.583 11.1715 27.4269C12.3827 27.7996 13.6675 28 15 28C22.1793 28 28 22.1793 28 15C28 7.82075 22.1793 2 15 2C7.82075 2 2 7.82075 2 15Z" fill="white"/>
</svg>
