<svg width="33" height="32" viewBox="0 0 33 32" fill="none" xmlns="http://www.w3.org/2000/svg">
<path d="M16.4004 2C8.66914 2 2.40039 8.26875 2.40039 16C2.40039 23.7313 8.66914 30 16.4004 30C24.1316 30 30.4004 23.7313 30.4004 16C30.4004 8.26875 24.1316 2 16.4004 2ZM23.1285 12.5531C23.1379 12.7 23.1379 12.8531 23.1379 13.0031C23.1379 17.5906 19.6441 22.875 13.2598 22.875C11.291 22.875 9.46602 22.3031 7.92852 21.3188C8.20977 21.35 8.47852 21.3625 8.76602 21.3625C10.391 21.3625 11.8848 20.8125 13.0754 19.8813C11.5504 19.85 10.2691 18.85 9.83164 17.475C10.366 17.5531 10.8473 17.5531 11.3973 17.4125C10.612 17.253 9.90625 16.8265 9.39982 16.2056C8.89338 15.5846 8.61754 14.8075 8.61914 14.0063V13.9625C9.07852 14.2219 9.61914 14.3812 10.1848 14.4031C9.70927 14.0862 9.31932 13.6569 9.04949 13.1532C8.77965 12.6495 8.63828 12.087 8.63789 11.5156C8.63789 10.8687 8.80664 10.2781 9.10977 9.76562C9.98134 10.8386 11.0689 11.7161 12.3018 12.3411C13.5348 12.9662 14.8854 13.3249 16.266 13.3938C15.7754 11.0344 17.5379 9.125 19.6566 9.125C20.6566 9.125 21.5566 9.54375 22.191 10.2188C22.9754 10.0719 23.7254 9.77812 24.3941 9.38437C24.1348 10.1875 23.591 10.8656 22.8691 11.2937C23.5691 11.2188 24.2441 11.025 24.8691 10.7531C24.3973 11.4469 23.8066 12.0625 23.1285 12.5531Z" fill="white"/>
</svg>
