<svg width="40" height="40" viewBox="0 0 40 40" fill="none" xmlns="http://www.w3.org/2000/svg">
<circle cx="20" cy="20" r="19.5" fill="white" stroke="#EFEFEF"/>
<path d="M27.6573 13.8009C26.6273 12.7823 25.2619 12.1606 23.8078 12.0482C22.3538 11.9357 20.9068 12.3398 19.7284 13.1875C18.4921 12.2805 16.9533 11.8693 15.4219 12.0365C13.8904 12.2038 12.4801 12.9372 11.475 14.089C10.4698 15.2408 9.94444 16.7255 10.0047 18.2441C10.0649 19.7627 10.7062 21.2024 11.7995 22.2733L17.8336 28.2346C18.3389 28.7251 19.0195 29 19.7284 29C20.4374 29 21.1179 28.7251 21.6232 28.2346L27.6573 22.2733C28.7918 21.1474 29.4286 19.6245 29.4286 18.0371C29.4286 16.4497 28.7918 14.9268 27.6573 13.8009ZM26.2872 20.9507L20.2531 26.9024C20.1845 26.9708 20.1027 27.0251 20.0127 27.0621C19.9226 27.0992 19.826 27.1183 19.7284 27.1183C19.6308 27.1183 19.5342 27.0992 19.4442 27.0621C19.3541 27.0251 19.2724 26.9708 19.2037 26.9024L13.1696 20.9219C12.4076 20.1536 11.9809 19.1215 11.9809 18.0467C11.9809 16.9719 12.4076 15.9398 13.1696 15.1715C13.9461 14.4153 14.9934 13.9912 16.0846 13.9912C17.1758 13.9912 18.2231 14.4153 18.9997 15.1715C19.09 15.2613 19.1975 15.3326 19.3159 15.3812C19.4343 15.4299 19.5613 15.4549 19.6895 15.4549C19.8178 15.4549 19.9448 15.4299 20.0632 15.3812C20.1816 15.3326 20.2891 15.2613 20.3794 15.1715C21.156 14.4153 22.2032 13.9912 23.2945 13.9912C24.3857 13.9912 25.433 14.4153 26.2095 15.1715C26.982 15.9297 27.4227 16.9562 27.4372 18.0311C27.4518 19.1059 27.039 20.1436 26.2872 20.9219V20.9507Z" fill="#FFCF55"/>
</svg>
