<svg width="31" height="24" viewBox="0 0 31 24" fill="none" xmlns="http://www.w3.org/2000/svg">
<g clip-path="url(#clip0_95_6266)">
<path d="M7.41999 3.81999C10.34 1.41999 14.27 0.709987 18.01 0.189987C19.29 0.0099874 20.61 -0.150013 21.86 0.189987C23.85 0.719987 25.54 2.47999 27.6 2.31999C28.17 2.27999 28.77 2.07999 29.3 2.28999C29.99 2.55999 30.28 3.42999 30.14 4.15999C30 4.88999 29.54 5.50999 29.09 6.09999C23.74 13.08 17.82 20.46 9.36999 22.89C7.17999 23.52 4.58999 23.77 2.46999 22.76C-0.250015 21.47 -0.270015 19.38 0.309985 16.73C1.34999 11.87 3.49999 7.04999 7.41999 3.81999Z" fill="#D5D458"/>
<path opacity="0.62" d="M2.81998 22.91C5.58998 22.53 8.11998 21.22 10.49 19.81C12.44 18.65 14.53 17.45 16.31 16.05C17.51 15.11 18.21 13.69 18.88 12.32C19.34 11.38 19.8 10.44 20.26 9.48999C20.52 8.95999 20.78 8.41999 20.85 7.82999C19.65 8.26999 18.45 8.70999 17.26 9.14999C18.22 8.79999 19.36 7.34999 20.14 6.66999C20.54 6.32999 21.98 5.47999 21.48 4.73999C21.28 4.43999 20.89 4.33999 20.53 4.28999C19.4 4.11999 18.22 4.23999 17.14 4.62999C17.89 3.75999 19.07 3.39999 20.2 3.19999C20.5 3.14999 20.83 3.08999 21.04 2.85999C20.71 2.55999 20.22 2.50999 19.77 2.48999C17.34 2.37999 14.89 2.63999 12.54 3.24999C13.34 2.84999 14.14 2.45999 14.99 2.18999C15.54 2.01999 16.11 1.89999 16.67 1.77999C17.88 1.52999 19.09 1.27999 20.31 1.02999C19.36 0.469987 17.76 0.489987 16.71 0.679987C15.9 0.829987 15 0.659987 14.21 0.829987C15.46 0.559987 16.74 0.359987 18 0.189987C19.28 0.0099874 20.6 -0.150013 21.85 0.189987C23.84 0.719987 25.53 2.47999 27.59 2.31999C28.16 2.27999 28.76 2.07999 29.29 2.28999C29.98 2.55999 30.27 3.42999 30.13 4.15999C30 4.88999 29.54 5.50999 29.09 6.09999C23.74 13.08 17.82 20.46 9.36998 22.89C7.29998 23.48 4.86998 23.73 2.81998 22.91Z" fill="#BFB939"/>
<path opacity="0.62" d="M26.05 6.35999C25.13 4.81999 25.65 3.52999 25.99 2.07999C26.51 2.25999 27.04 2.35999 27.6 2.31999C28.17 2.27999 28.77 2.07999 29.3 2.28999C29.99 2.55999 30.28 3.42999 30.14 4.15999C30 4.88999 29.54 5.50999 29.09 6.09999C28.59 6.75999 28.07 7.41999 27.56 8.07999C27.01 7.54999 26.45 7.03999 26.05 6.35999Z" fill="#FFEC9C"/>
<path opacity="0.68" d="M25.98 6.60998C26 6.49998 26.01 6.38998 26.01 6.26998C27.06 6.71998 28.19 5.88998 28.44 4.82998C28.61 4.11998 28.85 3.38998 28.47 2.75998C28.49 2.61998 28.17 2.38998 28.14 2.24998C28.54 2.18998 28.94 2.14998 29.31 2.28998C30 2.55998 30.29 3.42998 30.15 4.15998C30 4.88998 29.54 5.50998 29.09 6.09998C28.52 6.83998 27.95 7.58998 27.36 8.32998C26.55 7.90998 25.84 7.31998 25.98 6.60998Z" fill="#E8B769"/>
<path opacity="0.44" d="M8.75998 5.75999C10.47 4.57999 12.37 3.64999 14.39 3.17999C16.95 2.57999 19.72 2.73999 22.09 3.87999C23.39 4.49999 24.63 5.55999 24.83 6.97999C25.18 9.53999 23.61 11.24 22.17 13.05C20.43 15.25 18.17 17.01 15.71 18.36C12.58 20.07 9.12998 21.13 5.64998 21.93C4.33998 22.23 2.71998 22.4 1.87998 21.34C1.29998 20.61 1.34998 19.57 1.48998 18.65C2.22998 13.68 4.57998 8.64999 8.75998 5.75999Z" fill="#E5DF6E"/>
<path opacity="0.65" d="M27.37 8.06997C27.4 8.02997 27.42 7.99997 27.45 7.96997C28.06 7.10997 28.96 5.52997 29.17 4.48997C29.4 3.35997 29.23 2.52997 28.34 2.22997C28.67 2.18997 29 2.16997 29.3 2.28997C29.99 2.55997 30.28 3.42997 30.14 4.15997C30 4.88997 29.54 5.50997 29.09 6.09997C28.55 6.79997 28 7.50997 27.45 8.20997C27.42 8.15997 27.4 8.10997 27.37 8.06997Z" fill="#A57329"/>
<path d="M5.86999 19.87C5.70999 19.94 5.54999 20.01 5.38999 20.09C4.61999 20.45 3.43999 21.05 2.57999 20.73C1.56999 20.35 1.95999 18.09 2.13999 17.18C2.66999 14.41 4.44999 12.3 6.23999 10.53C7.16999 9.59998 8.32999 8.89998 9.60999 8.81998C10.14 8.78998 10.68 8.85998 11.21 8.79998C12.32 8.67998 13.3 7.89998 14.42 7.86998C15.1 7.84998 16.06 7.94998 16.72 8.13998C17.27 8.29998 17.81 8.72998 17.98 9.33998C18.16 9.96998 17.92 10.62 17.66 11.17C15.92 14.85 12.83 17.59 9.23999 18.64C8.03999 18.99 6.97999 19.37 5.86999 19.87Z" fill="#E5DF6E"/>
<path opacity="0.77" d="M2.45999 22.76C1.69999 22.4 1.14999 21.97 0.769989 21.49C1.23999 22.08 3.27999 21.7 3.89999 21.64C5.33999 21.49 6.74999 21.16 8.11999 20.71C13.07 19.09 19.01 16.38 21.18 11.3C20.75 11.53 20.32 11.76 19.89 11.99C20.78 10.47 21.82 9.02998 23.01 7.72998C23.18 7.54998 23.33 7.21998 23.12 7.08998C23.06 7.04998 22.98 7.04998 22.91 7.01998C22.66 6.90998 22.71 6.54998 22.67 6.27998C22.44 4.77998 15.97 6.30998 15.09 6.95998C16.42 5.96998 17.97 5.28998 19.6 4.97998C20.5 4.80998 21.41 4.74998 22.3 4.54998C22.43 4.51998 22.57 4.47998 22.66 4.38998C22.83 4.19998 22.73 3.86998 22.53 3.71998C22.37 3.60998 20.92 3.18998 20.8 3.26998C21.32 2.93998 21.88 2.67998 22.46 2.49998C22.04 2.44998 21.65 2.27998 21.33 1.99998C22.07 1.95998 22.81 1.81998 23.52 1.60998C22.57 1.02998 21.5 0.649976 20.39 0.489976C19.91 0.419976 19.41 0.509976 18.95 0.449976C18.65 0.409976 18.32 0.169976 18.01 0.209976C19.29 0.0299764 20.61 -0.130024 21.86 0.209976C23.44 0.629976 24.83 1.81998 26.37 2.21998C25.88 2.90998 25.62 3.78998 25.6 4.61998C25.57 6.00998 26.54 7.56998 28.05 7.44998C22.97 14.01 17.27 20.63 9.35999 22.9C7.17999 23.52 4.58999 23.76 2.45999 22.76Z" fill="#B9BC37"/>
<path opacity="0.68" d="M2.45999 22.76C2.14999 22.61 1.88999 22.45 1.64999 22.29C7.45999 24.43 13.69 21.01 18.15 17.27C19.48 16.16 20.77 14.98 21.95 13.71C23.51 12.03 24.55 10.14 25.77 8.22998C24.29 8.14998 22.96 9.08998 21.78 9.97998C22.43 9.00998 23.56 8.48998 24.38 7.66998C24.58 7.46998 24.78 7.16998 24.66 6.90998C24.47 6.49998 23.72 6.60998 23.6 6.17998C23.86 5.95998 24.12 5.73998 24.38 5.51998C24.25 5.36998 24.07 5.26998 23.88 5.24998C24.07 4.69998 24.93 4.51998 24.95 3.93998C24.96 3.55998 24.59 3.28998 24.23 3.16998C23.87 3.04998 23.47 2.97998 23.22 2.70998C23.85 2.59998 24.49 2.58998 25.12 2.69998C24.8 2.64998 24.27 1.26998 23.84 1.03998C24.69 1.48998 25.52 1.97998 26.39 2.19998C25.9 2.88998 25.64 3.76998 25.62 4.59998C25.59 5.98998 26.56 7.54998 28.07 7.42998C22.99 13.99 17.29 20.61 9.37999 22.88C7.17999 23.52 4.58999 23.76 2.45999 22.76Z" fill="#A29720"/>
<path opacity="0.75" d="M2.45999 22.76C2.14999 22.61 1.88999 22.45 1.64999 22.29C7.45999 24.43 13.69 21.01 18.15 17.27C20.63 15.19 22.77 13.38 24.41 10.55C24.95 9.63 25.48 8.71 26.02 7.79C26.06 7.72 26.11 7.64 26.12 7.55C26.15 7.34 25.94 7.15 25.73 7.11C25.52 7.07 25.3 7.14 25.1 7.21C25.32 7.06 25.55 6.9 25.68 6.67C25.81 6.44 25.81 6.11 25.6 5.94C25.44 5.81 25.22 5.81 25.02 5.81C24.33 5.82 23.64 5.82 22.95 5.83C23.75 5.5 24.55 5.17 25.35 4.84C25.11 4.61 25.15 4.22 25.15 3.89C25.15 3.55 25 3.13 24.67 3.12C24.97 3.01 25.26 2.9 25.56 2.79C25.42 2.46 25.27 2.16 25.24 1.81C25.34 1.85 26.31 2.29 26.36 2.21C25.87 2.9 25.61 3.78 25.59 4.61C25.56 6 26.53 7.56 28.04 7.44C22.96 14 17.26 20.62 9.34999 22.89C7.17999 23.52 4.58999 23.76 2.45999 22.76Z" fill="#8A720B"/>
<path opacity="0.42" d="M27.95 3.70999C28.09 3.70999 28.23 3.70999 28.35 3.76999C28.47 3.81999 28.58 3.94999 28.57 4.07999C28.57 4.15999 28.53 4.22999 28.49 4.28999C28.16 4.83999 27.76 5.34999 27.3 5.78999C27.06 6.01999 26.73 6.23999 26.43 6.10999C26.19 6.00999 26.09 5.71999 26.05 5.45999C26 5.19999 26 4.91999 26 4.64999C26 4.10999 26 3.30999 26.5 2.93999C27.17 2.44999 27.98 2.89999 27.95 3.70999Z" fill="#FFF69E"/>
<path d="M27.35 3.26C27.46 3.24 27.62 3.25 27.64 3.36C27.66 3.44 27.58 3.52 27.59 3.6C27.6 3.72 27.78 3.78 27.79 3.9C27.8 3.96 27.75 4.02 27.71 4.07C27.42 4.42 27.11 4.75 26.78 5.07C26.62 5.23 26.38 5.38 26.2 5.25C26.12 5.19 26.08 5.08 26.06 4.97C25.89 3.98 26.41 3.42 27.35 3.26Z" fill="#FBEF95"/>
<path opacity="0.34" d="M4.27997 10.73C5.27997 9.30998 6.54997 8.04998 8.12997 7.31998C6.27997 9.04998 4.68997 11.05 3.37997 13.21C3.20997 13.5 3.03997 13.78 2.87997 14.07C2.73997 14.33 2.51997 14.54 2.38997 14.79C1.96997 15.62 1.63997 16.49 1.39997 17.39C1.34997 17.58 1.29997 17.77 1.18997 17.92C1.27997 17.79 1.21997 17.24 1.24997 17.06C1.29997 16.73 1.37997 16.4 1.47997 16.08C1.67997 15.49 2.04997 15 2.27997 14.44C2.80997 13.15 3.46997 11.89 4.27997 10.73Z" fill="#BFB939"/>
<path opacity="0.34" d="M8.24999 4.34998C9.55999 3.21998 11.11 2.30998 12.81 1.97998C10.6 3.20998 8.56999 4.74998 6.76999 6.52998C6.52999 6.76998 6.29999 6.99998 6.06999 7.24998C5.86999 7.45998 5.59999 7.60998 5.41999 7.81998C4.80999 8.51998 4.27999 9.28998 3.81999 10.1C3.72999 10.27 3.62999 10.44 3.48999 10.56C3.60999 10.46 3.68999 9.90998 3.74999 9.73998C3.87999 9.42998 4.02999 9.12998 4.20999 8.84998C4.54999 8.32998 5.02999 7.94998 5.38999 7.44998C6.23999 6.32998 7.17999 5.26998 8.24999 4.34998Z" fill="#BFB939"/>
<path opacity="0.34" d="M3.16998 15.34C3.96998 14.32 4.97998 13.42 6.18998 12.92C4.73998 14.15 3.45998 15.58 2.39998 17.15C2.26998 17.35 2.12998 17.56 1.99998 17.77C1.87998 17.96 1.70998 18.11 1.60998 18.29C1.26998 18.89 0.989976 19.53 0.779976 20.18C0.739976 20.32 0.689976 20.45 0.599976 20.57C0.669976 20.48 0.639976 20.07 0.669976 19.94C0.719976 19.7 0.789976 19.46 0.879976 19.23C1.04998 18.8 1.34998 18.45 1.53998 18.04C1.97998 17.08 2.51998 16.17 3.16998 15.34Z" fill="#BFB939"/>
<path opacity="0.34" d="M16.91 14.35C16 15.4 14.88 16.31 13.56 16.77C15.18 15.53 16.62 14.06 17.84 12.44C18 12.23 18.16 12.01 18.31 11.79C18.44 11.59 18.64 11.44 18.76 11.26C19.16 10.63 19.49 9.95999 19.76 9.26999C19.81 9.12999 19.87 8.97999 19.97 8.85999C19.88 8.95999 19.89 9.39999 19.86 9.53999C19.8 9.79999 19.71 10.05 19.6 10.3C19.4 10.76 19.06 11.11 18.83 11.55C18.28 12.54 17.65 13.49 16.91 14.35Z" fill="#BFB939"/>
</g>
<defs>
<clipPath id="clip0_95_6266">
<rect width="30.18" height="23.44" fill="white"/>
</clipPath>
</defs>
</svg>
