<svg width="67" height="50" viewBox="0 0 67 50" fill="none" xmlns="http://www.w3.org/2000/svg">
<g clip-path="url(#clip0_95_6361)">
<path d="M11.8026 33.2111C11.9656 32.8433 12.2007 32.4432 12.5077 32.0107C15.0432 28.3423 13.1099 25.7866 13.0254 21.5519C12.9396 14.7438 15.0037 9.30228 18.711 3.72136C23.9855 -4.20081 32.2221 -11.8923 41.9737 -13.4083C52.3193 -15.009 57.4881 -3.34939 56.6518 4.86913C55.7532 14.3116 50.6798 22.9668 43.267 28.7807C39.5233 31.6913 35.269 33.9124 30.6913 35.1867C26.3484 36.4249 21.7059 35.1196 17.4899 36.3702C14.0042 37.3971 10.1568 36.7403 11.8026 33.2111Z" fill="#FCE1A7"/>
<path d="M26.6888 0.0981162C29.782 -2.91059 33.9587 -6.12821 38.0035 -7.70064C39.983 -8.47628 41.6198 -9.53146 43.7997 -9.82502C46.1287 -10.1335 49.1208 -9.85558 50.9594 -8.21937C53.4226 -6.00545 55.3869 -1.8083 54.433 1.48838C54.1313 -3.8795 48.1411 -6.44333 43.3433 -5.59895C40.6791 -5.13137 38.1637 -3.95057 35.8752 -2.51631C32.6437 -0.485489 29.3792 2.20142 27.0146 5.21251C24.4827 8.42865 22.8014 12.9531 21.4238 16.7693C20.029 20.6624 19.4031 24.7046 18.2783 28.6587C17.9374 29.8603 17.2854 30.9675 16.576 32.0052C15.8332 33.0838 14.579 35.2933 13.3531 35.7048C13.2383 35.5656 13.2752 35.4364 13.3344 35.2798C13.7455 34.272 14.6579 33.3772 15.2121 32.4179C16.7992 29.6604 16.8065 27.0485 16.9143 23.9495C16.9483 22.8163 16.9934 21.6694 17.1294 20.551C17.6079 16.6617 19.1114 12.971 20.5866 9.37108C21.921 6.11161 24.027 2.66192 26.6888 0.0981162Z" fill="#F2CF91"/>
<path d="M53.4528 -8.0296C52.4246 -8.86819 51.2173 -9.73907 49.1503 -10.4234C45.8773 -11.4767 44.2272 -11.1608 40.8033 -10.2657C33.1207 -8.2914 26.3662 -2.66904 22.0097 3.67989C19.421 7.44153 17.9745 11.9299 16.9643 16.3872C15.3588 23.4775 16.7699 26.4496 15.2173 30.7603C14.6894 32.2191 11.9826 35.5658 13.6209 36.7199C11.8596 36.4443 10.8059 35.3572 11.8141 33.1975C11.9771 32.8296 12.2121 32.4295 12.5192 31.997C15.0547 28.3286 13.1214 25.7729 13.0369 21.5382C12.9511 14.7301 15.0152 9.28861 18.7225 3.70769C23.997 -4.21447 32.2336 -11.9059 41.9852 -13.422C47.1164 -14.1993 50.9629 -11.7222 53.4528 -8.0296Z" fill="#F2CF91"/>
<path opacity="0.34" d="M19.7689 28.6224C20.6036 27.0952 21.249 25.4362 21.8765 23.6034C24.5974 15.7611 28.2663 8.10008 33.9479 2.05788C37.3328 -1.5324 49.3663 -8.8131 52.1284 -0.892066C53.6092 3.36603 52.0353 8.93424 50.3499 12.9318C47.5695 19.5875 41.9673 26.4001 35.4472 29.664C33.5961 30.59 31.5687 31.1444 29.5525 31.6852C25.838 32.6848 22.1504 31.3843 18.6565 33.4289C17.7442 33.9596 14.034 35.1219 16.2387 33.1186C17.7788 31.7341 18.8809 30.2429 19.7689 28.6224Z" fill="#FFF5CA"/>
<path opacity="0.72" d="M52.5791 -9.1975C50.7832 -10.6622 48.9684 -11.8238 46.3568 -12.0645C39.6611 -12.6997 32.5963 -8.62807 27.7042 -4.30944C21.6613 1.02828 18.5557 6.59918 16.485 13.1963C15.3999 16.6819 15.1464 21.4149 15.4352 24.9512C15.8221 29.6829 13.3812 30.8562 12.4628 35.229C12.382 35.6639 12.4367 36.0727 12.5993 36.433C11.505 35.9274 11.0358 34.9074 11.8166 33.2223C11.9797 32.8545 12.2147 32.4543 12.5218 32.0219C15.0573 28.3534 13.124 25.7977 13.0395 21.563C12.9537 14.755 15.0178 9.31346 18.7251 3.73253C23.9995 -4.18963 32.2361 -11.8811 41.9877 -13.3972C46.5472 -14.1172 50.0949 -12.2253 52.5791 -9.1975Z" fill="#ECBB70"/>
<path d="M16.8059 21.3115C16.8894 20.5374 16.9978 19.7608 17.1447 18.9928C17.3286 18.0957 17.6033 17.2271 17.8917 16.3696C19.2042 12.4094 20.5831 7.752 23.0199 4.34451C25.6214 0.707128 28.791 -2.5352 32.4899 -5.02708C34.1104 -6.11829 40.2111 -10.4073 46.8452 -10.0044C48.6271 -9.89403 50.832 -8.84685 52.5162 -6.88133C54.2167 -4.87978 54.9438 -1.9648 55.0634 0.659498C55.4305 8.85796 52.9338 17.2929 47.3259 23.4407C44.0542 27.0322 39.8098 30.0809 35.3732 31.9938C31.8504 33.514 28.4703 34.4675 24.6596 34.0456C22.8811 33.847 21.1142 34.6139 19.4116 35.274C17.925 35.8371 16.3219 36.4872 14.7475 35.9543C16.8578 36.082 18.7887 34.8342 20.7793 34.0449C25.4585 32.1704 27.9875 34.7795 35.5271 31.0494C40.2708 28.704 44.1675 24.9621 47.4001 20.7468C48.8839 18.8156 50.3352 16.8124 51.3382 14.603C53.4097 9.96414 53.9316 4.78998 53.2269 -0.223715C53.0493 -1.46129 52.7859 -2.67774 52.2095 -3.76243C51.2196 -5.57148 49.3499 -6.77776 47.3616 -7.30681C45.7478 -7.73527 43.971 -7.79591 42.3131 -7.55462C27.9988 -5.59431 18.5919 9.63354 17.9141 23.1715C17.7929 25.5312 17.886 28.02 16.8641 30.1686C15.9434 32.081 14.2122 33.5599 13.4509 35.5569C13.8142 33.9638 14.8124 33.0479 15.4996 31.6735C15.9793 30.7217 16.1308 29.3883 16.2856 28.3309C16.6244 26.0122 16.5802 23.6314 16.8059 21.3115Z" fill="#ECBB70"/>
<path d="M54 3.50265C54.1056 6.47985 53.5391 10.0014 52.5203 12.7899C50.6603 17.8971 47.7267 22.3335 43.7315 25.9723C40.6427 28.7798 34.9221 32.4909 30.0557 33.2794C27.3006 33.7184 24.9102 33.4304 22.1388 33.8334C21.4094 33.9441 20.2631 34.3978 19.5276 34.5719C19.9349 34.3805 20.331 34.2027 20.7407 34.0362C25.4199 32.1617 27.9489 34.7708 35.4885 31.0407C40.2322 28.6953 44.1289 24.9534 47.3615 20.7381C48.8453 18.8069 50.2966 16.8037 51.2997 14.5943C53.4096 9.96413 53.9316 4.78997 53.2269 -0.223724C53.1381 -0.842514 53.0158 -1.42029 52.8549 -2.00677C52.9997 -1.8204 53.8906 0.977753 54 3.50265Z" fill="#C59C5F"/>
<path d="M50.538 -8.65421C47.5959 -9.66525 44.3508 -9.71698 41.005 -8.91753C38.1624 -8.23123 30.5472 -4.01658 23.9519 3.76163C20.4691 7.86386 17.6079 18.369 17.3635 20.264C16.7531 22.3839 18.0485 28.7444 15.0594 32.8851C14.5627 33.55 14.091 34.2123 13.7263 34.9393C13.6706 35.0076 13.6149 35.076 13.5591 35.1443C13.9866 33.8085 14.8493 32.9187 15.4885 31.6872C15.9681 30.7353 16.1196 29.402 16.2744 28.3446C16.6244 26.0122 16.5802 23.6314 16.8059 21.3115C16.8894 20.5374 16.9978 19.7608 17.1447 18.9928C17.3286 18.0957 17.6033 17.2271 17.8917 16.3696C19.2043 12.4094 20.5831 7.75201 23.0199 4.34452C25.6214 0.707139 28.791 -2.53519 32.4899 -5.02707C34.1105 -6.11828 40.2111 -10.4073 46.8452 -10.0044C47.9955 -9.93122 49.3109 -9.47289 50.538 -8.65421Z" fill="#C59C5F"/>
<path opacity="0.51" d="M45.6953 20.6539C42.5544 24.7846 38.5002 28.2159 34.122 29.7213C31.8639 30.4746 28.1681 31.8992 25.7839 31.1838C23.0972 30.3355 23.4698 27.2476 25.2543 25.6755C27.7085 23.5342 31.0914 22.2414 33.6578 20.2144C36.346 18.1501 38.7771 15.7852 40.7996 13.1096C41.3768 12.3739 41.9266 11.6159 42.4216 10.8131C43.746 8.79748 44.8913 6.74956 45.938 4.59851C46.6107 3.32602 47.4639 0.88051 49.173 0.772165C53.2591 0.576507 51.6421 6.70139 51.107 9.06484C50.3251 12.9343 48.3765 17.0587 45.6953 20.6539Z" fill="#FFF5CA"/>
<path opacity="0.66" d="M40.1957 19.1959C42.7815 16.1375 45.0109 12.7885 47.1083 9.37729C47.665 8.4428 48.894 5.25666 50.4511 5.86655C51.8514 6.41681 50.8935 9.18665 50.5681 10.1733C48.3577 16.9978 43.153 22.4274 37.6676 27.0816C36.7784 27.836 29.827 31.1807 30.7974 27.556C31.0988 26.4587 34.6928 24.6553 35.6155 23.8599C37.2747 22.4133 38.7832 20.8437 40.1957 19.1959Z" fill="#FFFAE6"/>
<path opacity="0.51" d="M26.1716 -0.779056C26.2633 -0.863564 26.3662 -0.961743 26.488 -0.999037C26.6097 -1.03633 26.7777 -0.990379 26.8153 -0.868612C26.853 -0.746844 26.7886 -0.639975 26.7243 -0.533104C25.8022 0.877349 24.6196 2.07536 23.6289 3.4299C22.429 5.06903 21.5504 6.90195 20.7215 8.7299C20.3027 9.66313 19.8951 10.5827 19.4627 11.5047C19.2773 11.8999 18.6155 13.8869 18.0251 13.5192C17.5693 13.2384 18.1355 12.1523 18.2488 11.7895C18.5458 10.8935 18.8814 10.0063 19.2556 9.12773C20.0287 7.36813 20.9587 5.66816 22.0258 4.08C23.2652 2.33649 24.6417 0.704794 26.1716 -0.779056Z" fill="#FFFAE6"/>
<path opacity="0.51" d="M34.0112 -6.4724C33.8449 -6.38042 33.6923 -6.27727 33.5259 -6.18529C32.4885 -5.52907 31.5247 -4.76723 30.5472 -4.01658C30.3722 -3.88609 29.0699 -3.24101 29.4269 -4.04252C29.4664 -4.1469 29.5607 -4.20656 29.6413 -4.27739C30.4662 -4.92489 31.2636 -5.59475 32.1185 -6.19503C33.2675 -6.98796 34.4764 -7.68646 35.7204 -8.28804C38.2084 -9.4912 40.8728 -10.3229 43.5953 -10.8339C43.9519 -10.9073 44.3608 -10.9608 44.6376 -10.7123C44.6195 -10.5222 44.4445 -10.3917 44.2782 -10.2997C43.588 -9.92935 42.7429 -9.84473 41.9962 -9.657C41.1278 -9.43197 40.2517 -9.2815 39.4022 -8.99558C38.4557 -8.67487 37.517 -8.27959 36.6356 -7.81475C35.7517 -7.37475 34.8652 -6.95961 34.0112 -6.4724Z" fill="#FFFAE6"/>
<path opacity="0.51" d="M31.0299 33.9602C32.3792 33.6494 33.6344 33.0341 34.9084 32.4797C39.8131 30.3567 43.6819 27.6846 47.2281 23.5886C47.4648 23.3264 47.8087 23.1288 48.1002 22.9113C48.1808 22.8404 48.3111 22.7646 48.4045 22.818C48.539 22.905 48.4489 23.1274 48.3349 23.2393C46.3461 25.5098 44.2896 27.6112 41.8219 29.3773C39.5068 31.0402 36.8523 32.6994 34.1621 33.6466C32.2983 34.4483 30.2023 34.9469 28.1853 35.2367C26.218 35.5215 24.0788 35.2336 22.0945 35.2314C21.893 35.2264 21.7053 35.2327 21.5211 35.1507C21.5306 34.9991 21.6721 34.9096 21.8161 34.845C23.1681 34.1949 24.9912 34.3388 26.462 34.3547C27.974 34.4042 29.5452 34.2971 31.0299 33.9602Z" fill="#FFFAE6"/>
</g>
<defs>
<clipPath id="clip0_95_6361">
<rect width="61" height="36" fill="white" transform="translate(66.4525 1.75385) rotate(129.202)"/>
</clipPath>
</defs>
</svg>
