<svg width="53" height="37" viewBox="0 0 53 37" fill="none" xmlns="http://www.w3.org/2000/svg">
<path d="M6.16427 5.83544C8.17666 2.96031 10.7186 0.596326 13.7054 0.10649C16.5651 -0.383345 19.785 0.979675 22.3058 2.06583C27.5168 4.38723 30.44 5.79284 34.719 9.34947C38.0871 12.1607 41.7518 14.8654 44.3361 18.486C46.5815 21.5741 47.4077 25.4927 50.2886 28.091C53.8897 31.3282 54.0168 32.031 49.992 34.6931C37.3669 43.1268 28.5759 45.6399 13.3877 42.999C6.41847 41.7638 1.58873 40.4434 0.402479 33.1384C-0.529576 27.3669 0.105916 20.1684 1.86411 14.6312C2.7538 12.0116 4.17306 8.66796 6.16427 5.83544Z" fill="#FFC40C"/>
<path d="M14.701 15.7386C12.9005 18.9758 11.5871 22.6815 11.5871 25.2159C11.5447 30.8383 20.6323 32.2866 24.7841 32.1162C30.4824 31.8819 36.5196 31.3282 42.1754 30.5828C40.1419 32.031 37.9176 33.2023 35.5663 34.1181C30.5036 36.1201 25.2078 37.6534 19.912 38.3776C14.1714 39.1655 6.9692 40.1239 3.98239 33.5431C1.86409 28.8151 2.33011 24.0658 2.66904 19.0823C3.02915 14.1626 7.01157 8.96613 10.8669 6.1123C11.8201 5.3882 13.0276 5.00485 14.3833 4.79188C21.3737 3.76961 25.6103 7.70959 30.1858 12.3524C31.7322 13.9497 33.0032 15.8664 34.719 17.272C36.5619 18.8054 39.4428 20.5518 41.7094 22.4898C38.0024 21.4889 34.1259 18.6138 30.9696 16.5479C28.3641 14.8442 25.7162 13.0339 22.7506 12.0329C18.5987 10.606 16.7981 12.0755 14.701 15.7386Z" fill="#FFFA50"/>
<path d="M41.4129 22.2982C43.7854 23.6399 47.0264 26.0678 46.0096 28.4957C45.0563 30.7319 40.5232 31.9032 38.4684 32.2866C35.291 32.8829 32.0923 33.0746 28.9149 33.4579C26.3305 33.7774 24.2334 34.5228 21.6067 34.0329C16.6499 33.1172 12.5192 32.2014 11.8625 26.7493C11.0152 19.8277 16.9464 7.0281 25.8433 10.606C29.0208 11.8839 30.1223 14.4821 32.3465 16.6544C34.5072 18.7842 37.261 20.2537 39.9724 21.5102C40.3537 21.7232 40.8621 21.9787 41.4129 22.2982Z" fill="#FFE62E"/>
<path d="M13.7054 0.10649C16.5651 -0.383345 19.785 0.979675 22.3058 2.06583C27.5168 4.38723 30.44 5.79284 34.719 9.34947C38.0871 12.1607 41.7518 14.8654 44.3361 18.486C45.4165 19.9768 46.1791 21.6805 47.0052 23.3417C46.3909 22.4898 45.7766 21.6593 45.0564 20.9777C42.472 18.4008 39.8453 15.6534 36.7738 13.6728C36.7314 13.6515 36.689 13.6302 36.6679 13.6089C31.478 8.94483 24.8689 5.00484 19.785 5.51598C11.227 6.38916 4.82974 15.0145 4.21543 23.3843C3.30456 35.3959 12.5827 40.0174 23.4285 39.3146C32.8337 38.7183 45.0352 37.2701 52.5552 30.9448C52.6611 30.9022 52.7246 30.8809 52.8094 30.8383C53.4237 32.0949 52.5552 32.9894 49.992 34.6931C37.3669 43.1268 28.5759 45.6399 13.3877 42.999C6.41847 41.7638 1.58873 40.4434 0.402479 33.1384C-0.529576 27.3669 0.105916 20.1684 1.86411 14.6312C2.71143 12.0116 4.15188 8.66796 6.1219 5.83544C8.19784 2.96031 10.7186 0.596326 13.7054 0.10649Z" fill="#EF9818"/>
<path d="M8.21901 16.7822C9.38408 13.9923 11.2694 11.5857 13.7266 9.45596C16.1838 7.28364 18.4928 7.53921 15.9508 10.6273C11.8413 15.6747 9.76537 18.486 9.97721 25.1307C9.99839 26.8558 11.4812 31.4347 10.3373 32.3291C6.90566 30.9235 6.65147 25.5992 6.88448 22.4898C7.03276 20.424 7.4776 18.5286 8.21901 16.7822Z" fill="white"/>
<path d="M42.6203 26.4085C42.5779 26.0252 42.4932 25.6418 42.3661 25.365C41.9425 24.4918 40.9045 23.7464 40.1207 23.2139C39.4005 22.7241 38.4684 22.4046 38.0659 21.5954C38.9556 21.1268 40.9892 22.5111 41.7094 22.9797C42.7262 23.6399 43.7642 24.3853 44.5268 25.365C45.0987 26.0891 45.48 26.9409 45.2894 27.878C45.0987 28.7512 44.548 29.5392 43.5947 29.0068C42.7898 28.5808 42.7686 27.4095 42.6203 26.4085Z" fill="white"/>
</svg>
