<svg width="69" height="54" viewBox="0 0 69 54" fill="none" xmlns="http://www.w3.org/2000/svg">
<g clip-path="url(#clip0_95_6303)" filter="url(#filter0_f_95_6303)">
<path d="M22.0426 64.1939C20.165 64.1723 18.3389 64.1991 16.4605 64.0915C15.0031 64.0104 13.7132 64.7182 12.2772 64.5544C10.4234 64.3419 10.5829 63.3303 10.2456 61.4942C9.83647 59.2902 9.5412 57.0806 9.13449 54.8905C8.58732 51.9426 8.70878 48.7551 9.50594 45.8579C11.0732 40.1545 14.335 35.1869 18.5564 31.0629C26.4427 23.3651 38.3251 18.7122 49.2851 18.1631C51.7183 18.0367 55.224 17.7217 57.2541 16.2016C58.6884 15.1309 60.2792 12.5824 60.2208 15.8019C60.182 17.7041 59.1842 19.093 58.5598 20.7679C57.9321 22.465 57.9367 24.2878 57.839 26.0999C57.7602 27.8153 57.5069 29.5184 57.3175 31.2173C56.1387 42.273 47.1189 50.8738 38.6412 57.0459C33.6655 60.6779 28.4138 64.2508 22.0426 64.1939Z" fill="#78AF02"/>
<path opacity="0.42" d="M9.49695 57.074C9.3835 56.3473 9.26186 55.6148 9.12875 54.8987C8.58157 51.9508 8.70303 48.7632 9.50019 45.8661C11.0674 40.1627 14.3292 35.1951 18.5507 31.0711C26.4427 23.3651 38.3251 18.7122 49.2851 18.1631C51.7183 18.0367 55.224 17.7217 57.2541 16.2016C58.6884 15.1309 60.2792 12.5824 60.2208 15.8019C60.1953 17.2495 59.6024 18.4092 59.0528 19.6115C57.0068 21.6944 54.2921 22.7103 51.9643 24.6202C51.0111 25.4053 50.1676 26.2429 49.1358 26.9485C48.8793 27.1228 45.7728 28.5235 45.8237 28.3638C46.5237 26.3022 47.9122 24.9308 49.5097 23.5227C50.8835 22.3118 53.5609 20.6348 53.9462 18.7434C50.0575 16.9216 46.7108 22.7944 44.429 24.7609C45.1928 22.8173 47.0859 21.5797 47.9865 19.7197C46.8589 20.3704 45.1102 19.8164 43.7982 20.3989C42.4609 21.0003 41.6853 22.0197 41.1954 23.3982C40.4069 25.5687 39.7544 27.6148 39.4377 29.7741C39.1013 32.0661 39.8733 34.5366 38.3205 36.5256C36.6829 35.0115 38.0494 30.7793 38.4846 29.0084C38.7301 27.996 41.139 20.3425 41.4814 20.4115C34.9889 19.1338 32.3316 28.5182 32.3372 33.0404C32.3437 34.5469 32.4944 36.0569 32.5508 37.5618C32.5799 38.3393 32.0966 40.9802 32.4551 41.549C29.7361 37.2743 30.5597 31.2206 32.204 26.7314C32.5807 25.6887 33.0794 24.6461 33.1234 23.5902C28.3436 21.559 27.1533 28.4668 26.9 31.4766C26.6954 33.9464 25.9845 36.4766 26.1346 38.9631C26.2401 40.7466 27.25 42.407 27.4866 44.1602C25.8739 42.1751 25.3227 39.0412 25.2062 36.5417C25.0736 33.5424 26.5779 30.4204 26.07 27.4512C23.9953 26.7176 21.0337 31.1872 20.3217 32.6909C18.9388 35.605 19.1388 39.6406 19.1263 42.7946C19.1236 44.5757 19.9353 46.2924 20.5209 47.9484C20.8669 48.9358 21.0585 51.9032 21.6283 52.5712C20.3323 51.0401 19.6669 48.6443 19.2264 46.7115C18.9445 45.4759 18.6823 44.2297 18.5396 42.9696C18.4215 41.8488 18.8476 40.2303 18.5664 39.2028C17.7832 36.3826 15.7587 38.1386 15.3128 40.012C14.3478 44.1592 14.3455 48.0653 15.1484 52.1816C14.7523 50.1332 13.8226 48.4803 13.7264 46.1782C13.6385 43.8819 14.4491 41.7146 13.9712 39.3648C11.3709 39.5206 10.7063 48.3966 10.5504 50.2045C10.3738 52.3033 10.6954 54.336 11.3456 56.3181C11.6932 57.3555 12.88 59.1642 13.1791 60.4972C13.2591 60.8709 13.2737 61.1986 13.176 61.4598C13.0784 61.7211 10.1541 58.2795 9.92579 57.8386C9.78749 57.5829 9.641 57.3215 9.49695 57.074Z" fill="#A3CE24"/>
<path opacity="0.42" d="M9.50021 45.8661C11.0674 40.1627 14.3292 35.1951 18.5507 31.0711C26.4427 23.3651 38.3251 18.7122 49.2851 18.1631C51.7183 18.0368 55.224 17.7218 57.2541 16.2016C58.6884 15.1309 60.2792 12.5824 60.2208 15.8019C60.1894 17.6239 59.2703 18.9702 58.6508 20.5509C57.6063 21.9192 56.4342 23.0516 54.7224 23.647C54.5938 23.6911 54.4512 23.7377 54.3144 23.7762C51.3704 24.6314 52.0598 22.428 51.3334 20.6245C50.1931 17.7737 47.4926 21.0343 46.5446 22.6657C45.7639 24.0235 45.6591 26.7343 44.2234 27.5109C42.6197 25.3734 44.5687 22.5752 45.2442 20.3744C40.8478 19.6255 39.773 26.6997 39.9481 29.8998C40.1441 33.7495 38.0165 31.0005 37.3238 28.9397C36.8748 27.6115 36.7682 26.4743 36.8452 25.0751C36.899 24.0749 37.3021 22.6112 36.9921 21.7467C35.0468 23.9124 33.7363 26.2178 32.9678 29.1961C32.5573 30.7401 32.094 32.8821 32.0471 34.5345C32.0103 35.9984 32.7064 37.6709 31.9348 38.9984C30.1662 38.6992 29.647 34.1956 29.5774 32.7791C29.4016 29.371 30.0453 26.8669 30.9991 23.6766C29.6556 23.7119 28.1397 25.5436 27.4296 26.609C26.4088 28.1527 26.4183 30.1254 26.1436 31.9111C25.8147 34.0008 25.4694 36.2011 25.6812 38.3033C25.8123 39.5798 27.2925 42.6077 26.6947 43.6175C24.9903 42.948 23.7731 39.8236 23.1555 38.2306C22.0537 35.3946 22.2261 31.9253 23.3378 29.102C22.1966 29.1448 20.6975 31.8064 20.1759 32.7597C17.5089 37.6801 18.7148 43.3122 20.4125 48.4342C20.8271 49.6895 21.7864 51.1434 19.6888 50.4425C18.5437 50.0552 17.8333 48.9955 17.3653 47.886C15.9172 44.5509 16.9295 40.7543 16.5801 37.2978C15.8361 38.9866 14.9362 41.0546 14.7901 42.9183C13.6823 46.0496 15.6119 49.7954 14.5713 52.7785C13.0552 50.9343 12.6878 48.723 12.8506 46.3825C12.953 44.8424 14.079 42.8351 13.6842 41.3251C13.2902 39.779 12.4127 40.0553 11.6124 41.3017C10.2512 43.4006 10.9138 46.5149 10.4791 48.8601C10.2851 49.9209 10.5855 50.3635 9.25535 49.9441C9.12593 49.9022 8.99162 49.8325 8.86878 49.7464C8.94655 48.4333 9.15458 47.1259 9.50021 45.8661Z" fill="#A3CE24"/>
<path opacity="0.42" d="M14.8729 42.6955C14.8434 42.7725 14.8278 42.847 14.7983 42.924C14.7999 42.974 14.7818 43.0346 14.7834 43.0846C14.8392 42.9527 14.8671 42.8258 14.8729 42.6955Z" fill="#A3CE24"/>
<path d="M9.12874 54.8987C8.58157 51.9508 8.70303 48.7632 9.50019 45.8661C9.63402 45.3615 9.81208 44.8635 9.97047 44.3762C9.83986 44.9807 9.72073 45.5688 9.66145 46.089C9.34037 48.7947 9.39535 52.8631 11.0562 55.1628C11.4434 55.6906 11.9249 56.1013 12.4925 56.3892C14.4449 57.3669 15.0577 54.6457 15.1584 53.2998C15.3039 51.106 14.5187 48.8461 14.2111 46.6889C13.8448 44.0753 14.2922 39.6386 16.0224 36.8215C14.4379 41.2427 13.583 51.9758 19.1284 53.298C19.3905 53.3596 19.7142 53.2811 19.8069 52.992C20.6139 50.1506 19.4037 47.5562 19.0539 44.71C18.7122 41.9915 19.45 34.2658 20.002 33.0774C19.5408 37.2724 20.0203 42.4077 21.9304 45.7979C23.0844 47.8278 25.5683 46.3571 26.1682 44.6649C27.0076 42.3347 25.7417 39.7501 25.857 37.3031C25.9774 34.5178 26.2297 31.7883 26.7843 29.063C26.9232 28.3422 27.2111 27.6526 27.4663 26.94C27.9439 25.6139 28.6017 24.2921 29.9365 23.6768C28.1577 25.605 27.8948 28.3149 27.6738 30.7733C27.442 33.4561 27.2021 36.1332 28.6966 38.5484C29.2098 39.3843 30.7206 41.933 32.0507 41.0457C33.2145 40.2739 32.7381 36.7894 32.6519 35.6055C32.4404 33.015 32.8153 30.7378 33.2321 28.209C33.6037 25.9539 34.3478 24.2651 35.9684 22.58C34.3323 25.5242 33.9437 28.8665 34.2383 32.1747C34.3791 33.751 35.3765 37.2587 37.7106 35.7928C39.6586 34.5815 39.0305 31.296 39.016 29.4175C38.9734 26.6034 40.5727 23.5724 41.8824 21.181C41.6488 22.7513 40.9098 24.2238 40.8917 25.8353C40.8888 26.6758 40.8566 28.4117 41.2986 29.0878C42.2874 30.5868 42.7832 28.8339 43.1089 27.951C44.0247 25.4422 45.2489 23.5038 46.9361 21.4624C48.3093 19.7994 49.945 18.8943 51.977 18.2425C49.7499 19.0506 48.7305 20.8884 47.5137 22.7465C46.6216 24.1239 45.2631 25.8706 46.2493 27.5997C46.4678 27.9849 46.8986 28.0671 46.9951 28.4522C47.1733 29.1388 46.5716 29.7184 46.2158 30.2262C45.8829 30.7011 45.7491 31.2057 45.4547 31.6954C44.7019 32.9263 43.161 32.8599 42.017 33.499C40.7771 34.2053 39.8179 35.3648 38.8072 36.3538C37.5383 37.5893 36.253 38.8133 34.9817 40.0348C32.4816 42.4346 29.9513 44.8253 27.4537 47.2389C24.0995 50.4565 20.697 53.6037 17.1726 56.6287C14.6842 58.7679 13.3004 60.2892 12.3909 63.3641C12.3039 63.645 12.1972 64.0587 12.0503 64.5297C10.4808 64.26 10.5846 63.2582 10.2644 61.5196C9.83072 59.2984 9.53544 57.0888 9.12874 54.8987Z" fill="#6D9E02"/>
<path d="M15.1027 56.045C16.5507 54.0314 18.2688 52.2071 19.8666 50.3107C23.3901 46.1372 26.9695 41.5876 31.2389 38.1444C35.6271 34.6013 39.8876 31.0663 44.5345 27.8511C48.888 24.8454 53.8912 21.6967 57.431 17.7787C58.1827 16.9501 58.8633 15.7176 59.3252 14.7102C59.3777 14.6004 59.4195 14.471 59.4589 14.3277C59.9416 14.092 60.2486 14.3683 60.2232 15.8159C60.1844 17.7181 59.1866 19.1069 58.5622 20.7819C57.9345 22.479 57.9392 24.3018 57.8415 26.1138C57.7626 27.8293 57.5093 29.5323 57.3199 31.2313C56.1412 42.287 47.1213 50.8877 38.6436 57.0598C33.6597 60.6861 28.408 64.259 22.0426 64.1939C20.165 64.1723 18.3389 64.1991 16.4604 64.0915C15.0031 64.0104 13.7132 64.7183 12.2772 64.5544C11.508 64.4671 11.0944 64.2383 10.8423 63.8662C11.9048 61.1306 13.2621 58.6016 15.1027 56.045Z" fill="#61A304"/>
<path opacity="0.6" d="M57.4285 17.7648C58.1802 16.9362 58.8609 15.7036 59.3227 14.6962C59.3752 14.5865 59.4171 14.4571 59.4565 14.3137C59.9391 14.0781 60.2462 14.3543 60.2208 15.8019C60.2231 15.9379 60.2034 16.0706 60.1894 16.1951C60.1018 16.1459 60.0027 16.1131 59.8888 16.1188C59.3194 16.1471 58.7601 17.1716 58.4674 17.5893C57.9714 18.2796 57.3698 18.7372 56.7305 19.266C54.4839 21.1473 52.0605 22.7582 49.8081 24.6476C48.6311 25.63 44.056 27.9065 43.9043 29.5342C43.7757 31.0071 45.4793 30.2839 46.5969 29.9438C47.885 29.5521 48.5842 28.8332 49.7298 28.244C50.9623 27.618 52.3192 27.2502 53.4641 26.4529C54.832 25.4944 55.8443 24.4332 57.0435 23.3321C56.3378 25.2798 53.4844 26.7724 51.8002 27.8512C49.426 29.3744 47.0275 30.5142 44.3334 31.2393C42.1416 31.8401 40.3063 32.2634 38.6129 33.8608C38.3292 34.126 37.5843 34.5442 37.8323 34.9745C38.1793 35.5596 39.4862 35.1934 40.0367 35.2617C41.1507 35.4319 42.1656 35.6914 43.3273 35.724C45.3622 35.7825 47.4408 35.5175 49.4733 35.44C51.2339 35.3673 53.2462 34.8483 54.782 33.9464C51.2015 36.0407 47.7003 37.116 43.5044 36.8129C42.1585 36.7121 40.7542 36.8514 39.4182 36.6843C38.0518 36.5082 36.6543 36.3591 35.3661 36.9949C34.1647 37.5939 33.0958 38.7009 32.0704 39.6063C30.6516 40.8467 31.2567 41.4295 32.8728 41.8417C35.6332 42.5552 38.4458 42.2185 41.1891 42.7124C43.6949 43.162 46.5561 42.2855 49.0542 41.9969C51.0901 41.7753 52.8493 41.1643 54.4612 40.328C54.4293 40.3911 54.3973 40.4541 54.3653 40.5172C54.3275 40.5884 54.2898 40.6597 54.2382 40.7334C51.0563 43.4612 46.5701 43.7118 42.4424 44.2869C41.9984 44.2932 41.5462 44.2938 41.094 44.2943C38.357 44.2444 35.5765 44.1518 32.8345 44.3182C30.9231 44.4318 28.9088 44.2045 27.7076 45.9881C27.2648 46.6547 26.7833 47.6727 27.3891 48.3416C27.6732 48.6506 28.2867 48.8729 28.6692 49.0067C32.2494 50.2581 36.2917 49.8918 40.0166 50.048C42.353 50.1468 44.7222 50.1466 47.0735 49.9628C47.0563 49.9874 47.0309 50.0062 47.0055 50.025C46.9998 50.0332 46.994 50.0414 46.9801 50.0438C44.6461 51.5097 41.8034 51.4712 39.14 51.595C37.7653 51.6573 36.2741 51.8334 34.8955 51.7097C33.6273 51.6024 32.369 51.5509 31.1034 51.4576C29.234 51.3197 27.494 51.1016 25.6229 51.1579C23.1717 51.2228 19.2513 51.9554 18.826 54.9666C18.5471 56.9326 22.0528 57.9243 23.4092 58.4109C26.4987 59.526 30.3599 59.3136 33.6148 59.1648C34.348 59.1292 35.0788 59.0796 35.8071 59.0161C35.4858 59.2306 35.1588 59.4532 34.8433 59.6595C34.0713 60.1686 32.5598 60.1472 31.6479 60.3507C30.3763 60.6318 28.9658 60.205 27.6494 60.1493C25.0664 60.0364 21.81 59.8911 19.4062 58.878C18.3594 58.4374 14.7195 57.254 15.2505 59.7022C15.7996 62.2118 19.337 63.6287 21.8108 64.1413C20.0134 64.1271 18.2431 64.1441 16.431 64.0464C14.9736 63.9653 13.6837 64.6732 12.2477 64.5093C11.4785 64.422 11.0649 64.1932 10.8128 63.8211C11.7539 61.4156 12.9324 59.1765 14.4411 56.9368C16.0382 54.8323 17.7008 52.7737 19.4068 50.7577C19.5494 50.5891 19.6921 50.4204 19.8347 50.2517C20.0315 50.0233 20.22 49.7891 20.4168 49.5606C21.0669 48.8073 21.7145 48.0401 22.3728 47.2925C24.7559 44.5544 27.1677 41.6532 29.8964 39.2061C30.3243 38.8221 30.7603 38.4439 31.207 38.0853C35.5952 34.5423 39.8557 31.0073 44.5026 27.7921C47.0121 26.0584 49.7993 24.3118 52.3098 22.2979C54.1866 20.9268 55.939 19.4196 57.4285 17.7648Z" fill="#468E02"/>
<path opacity="0.31" d="M17.7153 60.2451C18.7137 59.3085 23.0442 60.6218 24.227 60.8158C28.8446 61.5976 32.7 61.3934 36.2591 57.953C37.3379 56.9018 38.0249 55.9912 36.3434 55.2889C34.2361 54.4103 29.3654 54.9654 27.1198 55.1378C26.0359 55.2207 19.933 56.0356 21.2272 53.4746C21.9194 52.1036 25.6099 52.3089 26.861 52.1966C29.7604 51.9451 32.5507 51.8492 35.4735 52.2614C37.2626 52.5139 40.3251 53.5979 42.0565 52.9919C44.1877 52.2509 47.0489 47.3322 43.1493 47.2857C40.3566 47.2456 37.6162 47.3399 34.8211 47.1637C33.8708 47.1083 28.0059 47.1131 29.1521 45.6694C29.9383 44.6696 33.4641 44.9183 34.6464 44.7821C37.6671 44.4447 40.9647 44.1304 43.9966 44.2649C45.8922 44.3479 48.9961 44.7282 49.928 42.475C50.6335 40.7715 49.0133 40.4174 47.7486 40.166C44.5728 39.5399 39.8794 40.9397 37.0402 39.0841C34.7669 37.5885 37.8162 37.3322 39.2745 37.1332C41.3564 36.846 43.4585 36.8784 45.5599 36.8247C47.2729 36.7676 52.031 36.8785 51.7876 34.1069C50.178 33.7725 45.2257 35.3327 44.4602 33.0622C44.0088 31.72 47.1817 31.6358 47.9396 31.3733C50.2438 30.5947 55.058 28.4126 55.5118 25.7266C53.0025 24.2366 50.2994 29.2783 47.6876 28.0217C48.5441 26.0331 50.4282 24.8258 52.0592 23.5266C53.5517 22.338 55.0445 20.6611 56.2801 18.9504C56.6776 18.5574 57.0613 18.1668 57.4343 17.7566C58.186 16.928 58.8667 15.6955 59.3285 14.6881C59.381 14.5783 59.4228 14.4489 59.4622 14.3056C59.9449 14.0699 60.2519 14.3462 60.2265 15.7937C60.1877 17.696 59.1899 19.0848 58.5655 20.7598C57.9378 22.4569 57.9425 24.2796 57.8448 26.0917C57.7659 27.8072 57.5126 29.5102 57.3232 31.2092C56.1445 42.2648 47.1246 50.8656 38.6469 57.0377C34.4589 60.0861 30.0832 63.0885 25.0117 63.9302C24.3605 63.7791 23.8299 63.3339 23.5708 62.3097C22.4448 62.8883 16.1268 61.745 17.7153 60.2451Z" fill="#A3CE24"/>
<path d="M52.6302 22.1195C52.7884 21.9983 52.9466 21.8772 53.0965 21.7503C51.5536 23.795 48.5467 25.6808 46.6092 27.1559C45.0077 28.3781 42.0365 29.4463 40.842 31.0636C42.5925 31.4234 45.4424 30.3191 47.0854 29.5778C45.3404 31.0047 43.2486 31.6024 41.0969 32.1459C39.0846 32.665 36.8298 33.2338 35.9323 35.3158C37.3897 36.7036 40.2182 35.9262 42.0137 36.3786C39.2639 37.1135 35.2763 36.4435 34.198 36.7624C32.6616 37.2121 29.1701 41.4446 28.7349 43.0935C29.672 43.3595 30.8831 42.8162 31.8859 42.7619C32.9165 42.7027 33.9667 42.877 34.9826 42.7342C32.7677 43.612 30.7892 43.6297 28.5205 44.0789C26.1265 44.5502 24.3574 46.5342 22.9333 48.357C25.6412 50.609 29.9807 49.2786 32.9036 50.8754C31.2441 51.7272 28.5174 50.8785 26.7332 50.7759C24.8269 50.6732 22.9402 50.5599 21.1072 51.3633C19.6944 51.9851 17.8783 53.2522 17.9379 54.9792C17.9901 56.7865 20.709 58.4478 22.1931 59.0483C20.0615 58.9709 17.4906 56.4364 15.346 57.5099C13.6366 58.3634 13.4169 60.0534 14.3147 61.6473C15.1273 63.0839 16.6369 63.5435 18.0719 64.1096C17.5312 64.097 16.9848 64.0926 16.4334 64.0603C14.9761 63.9792 13.6862 64.6871 12.2502 64.5232C11.481 64.4359 11.0674 64.2071 10.8153 63.8351C11.4495 62.2158 12.2041 60.6687 13.0717 59.152C16.2427 55.342 19.1427 51.2565 22.2712 47.3678C25.0306 44.0753 27.9154 40.7607 31.2176 38.105C35.6059 34.5619 39.8663 31.027 44.5132 27.8117C47.003 26.0887 49.6993 24.315 52.2245 22.3847C52.3786 22.3217 52.5113 22.2194 52.6302 22.1195Z" fill="#4A8209"/>
<path opacity="0.24" d="M24.5165 27.9254C22.5407 29.0196 20.6762 30.3383 18.9933 32.0774C14.1241 37.0907 8.78536 48.0883 13.1291 54.906C15.4538 53.9586 17.1105 47.8662 18.4201 45.7189C21.7772 40.232 26.7632 35.8012 31.8365 31.9079C36.6443 28.2192 45.2227 26.4162 47.4489 20.1733C44.4755 18.0039 40.1687 20.908 37.5587 22.1927C33.1787 24.3128 28.6173 25.6463 24.5165 27.9254Z" fill="#CCEA86"/>
<path opacity="0.2" d="M48.6984 43.8113C48.696 43.6753 48.7125 43.5647 48.7289 43.4541C48.7183 43.4345 48.7158 43.4205 48.7052 43.4009C48.674 43.5499 48.6682 43.6802 48.6984 43.8113Z" fill="#CCEA86"/>
<path opacity="0.2" d="M45.1395 49.6209C45.6087 48.6553 45.5389 47.605 46.5944 46.9526C47.2615 46.541 48.1249 46.7553 48.6791 46.0691C49.2505 45.3583 49.143 44.1352 48.7289 43.4541C48.9285 42.5072 50.014 42.5963 50.6018 41.897C51.0723 41.3476 51.095 40.3744 51.5197 39.7684C52.4634 38.4393 54.5739 38.2333 55.3783 36.9287C56.2295 35.5226 54.999 34.0374 55.1374 32.7423C55.2643 31.5856 56.3951 31.0349 56.6153 29.9193C56.8856 28.5579 55.6842 27.8502 55.8799 26.7173C56.1791 24.9487 56.9418 23.5294 56.9765 21.6854C56.9968 20.5761 56.8105 19.6397 56.5047 18.717C56.8227 18.4026 57.1408 18.0882 57.4343 17.7566C58.186 16.928 58.8667 15.6954 59.3285 14.688C59.381 14.5783 59.4228 14.4489 59.4622 14.3055C59.9449 14.0699 60.2519 14.3461 60.2265 15.7937C60.1877 17.6959 59.1899 19.0848 58.5655 20.7597C57.9378 22.4568 57.9425 24.2796 57.8448 26.0917C57.7659 27.8071 57.5126 29.5102 57.3232 31.2091C56.1445 42.2648 47.1246 50.8656 38.6469 57.0377C38.3871 57.2342 38.1248 57.4167 37.8568 57.6074C39.7715 56.043 41.4241 54.1728 43.035 52.31C43.79 51.4593 44.6556 50.625 45.1395 49.6209Z" fill="#CCEA86"/>
<path opacity="0.25" d="M23.3223 30.3611C22.3715 31.1602 21.7008 32.0822 20.8156 32.9272C19.8934 33.8073 18.4802 33.9769 17.7291 35.0136C17.124 35.8595 17.0807 37.1235 16.7508 38.0646C16.2733 39.3907 15.5238 40.5995 15.0347 41.9419C14.5638 43.2237 14.1043 44.4892 13.7684 45.8047C13.582 46.541 12.8202 47.9243 12.8697 48.6551C12.9111 49.258 12.956 49.5948 13.7694 49.6886C15.4209 49.8936 16.3578 47.5462 16.764 46.4266C17.5148 44.3273 17.5367 41.9614 18.9026 40.1345C19.9881 38.6728 21.5788 37.675 23.0663 36.7027C25.1004 35.3685 27.2525 33.9705 29.2064 32.5068C31.0472 31.1349 32.0043 29.3512 34.1161 28.2546C35.0708 27.7636 35.6495 27.2167 36.4469 26.6888C37.3402 26.0937 46.8692 22.307 45.5174 21.0299C44.4129 19.9749 39.1795 22.9989 37.9086 23.4881C35.1062 24.5768 32.3363 26.1768 29.4341 26.9026C27.0678 27.4911 25.1812 28.8065 23.3223 30.3611Z" fill="#CCEA86"/>
</g>
<defs>
<filter id="filter0_f_95_6303" x="-4" y="-4" width="76.7069" height="84.8445" filterUnits="userSpaceOnUse" color-interpolation-filters="sRGB">
<feFlood flood-opacity="0" result="BackgroundImageFix"/>
<feBlend mode="normal" in="SourceGraphic" in2="BackgroundImageFix" result="shape"/>
<feGaussianBlur stdDeviation="2" result="effect1_foregroundBlur_95_6303"/>
</filter>
<clipPath id="clip0_95_6303">
<rect width="68.86" height="35.64" fill="white" transform="translate(0 56.3893) rotate(-54.9747)"/>
</clipPath>
</defs>
</svg>
