<svg width="112" height="97" viewBox="0 0 112 97" fill="none" xmlns="http://www.w3.org/2000/svg">
<g clip-path="url(#clip0_95_6322)" filter="url(#filter0_f_95_6322)">
<path d="M117.162 127.234C115.719 131.025 114.412 134.749 112.794 138.478C111.543 141.373 112.018 144.517 110.615 147.307C108.803 150.908 106.87 149.831 102.895 149.146C98.1202 148.334 93.4189 147.286 88.6744 146.478C82.2881 145.391 75.9142 142.769 70.6328 138.993C60.2341 131.564 52.5906 121.247 47.3731 109.613C37.639 87.8821 37.0583 60.3167 44.1128 37.6803C45.6699 32.6515 47.6437 25.3072 46.0738 20.0571C44.9712 16.3504 40.9883 11.2249 47.4741 13.7427C51.303 15.2391 53.3759 18.2977 56.3075 20.8123C59.2814 23.3501 62.9816 24.6991 66.5837 26.2477C70.0039 27.686 73.2689 29.4689 76.5733 31.1192C98.116 41.7491 108.837 66.4514 115.036 88.2443C118.693 101.042 122.025 114.355 117.162 127.234Z" fill="#78AF02"/>
<path opacity="0.42" d="M93.3716 147.37C91.8132 147.058 90.2371 146.759 88.6857 146.496C82.2994 145.408 75.9255 142.786 70.644 139.011C60.2454 131.582 52.6019 121.265 47.3844 109.63C37.638 87.8816 37.0573 60.3162 44.1118 37.6798C45.6688 32.6511 47.6426 25.3067 46.0727 20.0567C44.9702 16.35 40.9873 11.2245 47.4731 13.7423C50.3898 14.8726 52.2998 16.9395 54.3285 18.9501C57.028 24.6518 57.0651 30.9144 59.2037 37.0585C60.0855 39.5768 61.1555 41.9116 61.8175 44.53C61.9799 45.1801 62.5054 52.5242 62.2194 52.3019C58.5601 49.3459 56.8137 45.5077 55.1485 41.2185C53.7167 37.5302 52.3109 30.8505 48.7623 28.6595C42.1697 35.1881 51.5856 46.352 53.8731 52.4453C50.5007 49.4477 49.4017 44.686 46.3009 41.4734C46.78 44.2452 44.3532 47.3788 44.5568 50.4736C44.7798 53.6339 46.2693 55.9666 48.6998 57.9874C52.514 61.2042 56.1772 64.0523 60.3203 66.3038C64.7179 68.6941 70.3033 68.9698 73.1798 73.6012C68.8888 75.7939 61.3242 69.8685 58.0571 67.6661C56.1869 66.4136 42.4606 55.8245 42.8557 55.1815C35.426 67.3962 52.4774 79.7792 61.6526 83.1381C64.7128 84.2477 67.8873 85.0674 70.9815 86.0744C72.5799 86.595 77.5756 89.5432 78.9962 89.24C68.3007 91.5685 56.6375 85.3867 48.7586 78.7062C46.9247 77.1654 45.182 75.377 43.0733 74.5007C35.3917 82.6806 48.5141 90.2427 54.4291 92.9993C59.2856 95.2549 63.8871 98.5824 69.0415 100.131C72.7372 101.246 76.8571 100.435 80.5891 101.262C75.3613 103.054 68.595 101.836 63.439 100.209C57.2575 98.243 52.0471 92.8655 45.647 91.6826C42.613 95.3434 49.4704 104.681 51.9893 107.245C56.8684 112.222 65.2019 114.824 71.589 117.2C75.199 118.532 79.2855 118.166 83.0804 118.212C85.3407 118.246 91.5014 120.069 93.2807 119.411C89.2099 120.899 83.8551 120.463 79.6071 119.916C76.8912 119.566 74.1684 119.17 71.5067 118.52C69.1457 117.924 66.1808 115.854 63.8874 115.658C57.5842 115.145 59.6368 120.559 63.1036 122.86C70.7951 127.907 78.715 130.823 87.6614 132.263C83.2121 131.539 79.1671 132.193 74.4267 130.672C69.7041 129.139 65.913 125.88 60.7914 125.098C59.1694 130.488 76.6748 138.451 80.2252 140.114C84.35 142.036 88.712 142.899 93.2163 143.058C95.5791 143.126 100.132 142.067 103.058 142.454C103.876 142.57 104.551 142.785 105.008 143.177C105.465 143.57 96.3061 146.936 95.2418 147.07C94.6202 147.16 93.9808 147.262 93.3716 147.37Z" fill="#A3CE24"/>
<path opacity="0.42" d="M70.6441 139.011C60.2454 131.582 52.6019 121.265 47.3844 109.63C37.638 87.8817 37.0573 60.3162 44.1118 37.6798C45.6689 32.6511 47.6427 25.3067 46.0728 20.0567C44.9702 16.35 40.9873 11.2245 47.4731 13.7423C51.1447 15.1638 53.19 18.0311 55.9342 20.4654C57.9308 23.6035 59.3536 26.8245 59.2854 30.7397C59.2791 31.0335 59.2673 31.3574 59.2433 31.6635C58.7836 38.2714 54.829 35.2311 50.63 35.3602C43.9987 35.5483 48.5988 43.4549 51.2007 46.5932C53.3726 49.1884 58.792 51.4212 59.297 54.9117C53.767 56.5709 49.5447 50.5331 45.5847 47.5229C40.7895 55.8808 54.3352 63.3327 60.9555 65.3625C68.9088 67.834 61.7483 70.1001 57.0528 69.9691C54.0244 69.8898 51.6388 69.2586 48.8585 68.0597C46.8701 67.205 44.202 65.2967 42.2178 65.2811C45.1603 70.8403 48.859 75.216 54.3263 78.9942C57.1516 80.9775 61.1504 83.5134 64.4666 84.8398C67.408 86.0057 71.3186 85.8402 73.4358 88.3945C71.5109 91.7582 61.9905 89.4548 59.0659 88.5404C52.0232 86.3569 47.4247 83.1853 41.6654 78.8733C40.7356 81.6244 43.3208 86.0636 44.9523 88.2977C47.322 91.5184 51.3298 92.9693 54.7467 94.8572C58.7395 97.0816 62.9443 99.4217 67.3656 100.559C70.052 101.244 77.2959 100.499 78.8982 102.464C76.2702 105.422 69.0266 105.562 65.3358 105.627C58.7632 105.748 51.8557 102.813 46.9586 98.454C46.1948 100.8 50.4755 105.824 52.02 107.592C60.0111 116.668 72.3319 118.42 83.9847 118.794C86.8395 118.889 90.5029 118.027 87.5183 121.758C85.8794 123.792 83.2009 124.443 80.602 124.565C72.7591 125.017 65.814 120.134 58.5436 118.267C61.4141 121.034 64.9375 124.401 68.6082 126.086C74.1329 130.666 83.1676 129.544 88.4418 133.878C83.5719 135.578 78.8135 134.675 74.1883 132.601C71.1413 131.245 67.9096 127.466 64.5529 127.141C61.1237 126.788 61.0302 128.774 62.9616 131.325C66.2038 135.65 73.0134 136.627 77.4456 139.257C79.4524 140.441 80.5738 140.161 78.7319 142.546C78.5505 142.778 78.3091 142.998 78.0429 143.183C75.4377 142.047 72.9414 140.65 70.6441 139.011Z" fill="#A3CE24"/>
<path d="M88.6857 146.496C82.2995 145.408 75.9255 142.786 70.6441 139.011C69.7205 138.363 68.8433 137.631 67.973 136.946C69.1016 137.662 70.2056 138.342 71.2164 138.85C76.4644 141.517 84.7561 144.438 90.6578 142.783C92.0167 142.391 93.2085 141.721 94.2153 140.785C97.6531 137.554 92.5913 134.283 89.9367 133.076C85.596 131.146 80.4277 131.054 75.8236 130.07C70.2502 128.865 61.5859 124.651 57.1621 119.043C64.9478 125.551 86.0776 135.284 92.8918 125.023C93.212 124.537 93.2941 123.823 92.7769 123.419C87.6157 119.665 81.4524 120.186 75.4195 118.774C69.6518 117.441 54.5336 110.187 52.5349 108.182C60.6988 112.244 71.4706 115.098 79.7697 113.751C84.7464 112.924 83.6149 106.79 80.6301 104.312C76.53 100.873 70.3449 101.514 65.4683 99.4569C59.9094 97.1369 54.5618 94.5911 49.4482 91.4354C48.0898 90.6165 46.9058 89.5186 45.6509 88.47C43.3175 86.5132 41.1269 84.1941 40.874 81.0283C43.4588 86.073 48.7586 88.6257 53.5795 90.906C58.8477 93.3754 64.0981 95.8572 70.1099 94.6262C72.1876 94.2085 78.4824 93.0439 77.6743 89.6851C76.9762 86.7498 69.5546 85.1191 67.0895 84.4115C61.6782 82.9098 57.3393 80.4524 52.5216 77.7225C48.2251 75.2882 45.3546 72.5207 43.1451 67.9783C47.8966 73.4905 54.3852 76.7695 61.3139 78.6374C64.6156 79.5266 72.4727 80.118 71.2393 74.292C70.2345 69.4386 63.1033 68.2638 59.2829 66.8932C53.5441 64.8824 48.5889 59.3801 44.7152 54.9418C47.7258 56.5858 50.1614 59.1819 53.4159 60.4196C55.1183 61.052 58.6149 62.4109 60.3155 62.0184C64.0923 61.1303 60.9069 58.8184 59.3591 57.4998C54.9536 53.773 51.9349 49.8455 49.0523 44.9026C46.7029 40.8783 46.0864 36.8865 46.279 32.2797C46.2581 37.3986 49.2254 40.8356 52.0869 44.6881C54.2155 47.5239 56.7453 51.5806 60.987 50.8693C61.931 50.7132 62.4188 49.9006 63.2716 49.9921C64.7969 50.1424 65.5241 51.7945 66.2886 52.8946C67.0037 53.9237 67.9273 54.5711 68.7011 55.5331C70.6363 57.9771 69.3532 61.0526 69.7968 63.849C70.3051 66.89 71.9417 69.6993 73.1943 72.4861C74.7542 75.9802 76.2787 79.499 77.8085 82.9877C80.812 89.8462 83.7746 96.7596 86.8082 103.624C90.8339 112.824 94.6807 122.07 98.1889 131.472C100.673 138.113 102.727 142.053 108.285 146.189C108.79 146.575 109.549 147.099 110.395 147.748C108.678 150.73 106.724 149.773 102.959 149.127C98.1315 148.351 93.4303 147.303 88.6857 146.496Z" fill="#6D9E02"/>
<path d="M95.4626 135.234C92.4579 130.797 90.0388 125.953 87.3836 121.3C81.5454 111.043 74.9863 100.394 71.1852 89.1692C67.2701 77.6292 63.2762 66.3545 60.2188 54.5343C57.3676 43.4652 54.7108 30.9719 49.403 20.8734C48.2828 18.7313 46.2904 16.4323 44.5916 14.745C44.4081 14.5567 44.1769 14.3754 43.9155 14.1887C43.7973 13.0342 44.5864 12.6173 47.5032 13.7477C51.3321 15.244 53.405 18.3027 56.3365 20.8173C59.3105 23.355 63.0106 24.704 66.6128 26.2527C70.033 27.691 73.298 29.4739 76.6024 31.1242C98.1451 41.7541 108.866 66.4564 115.065 88.2492C118.705 101.059 122.037 114.372 117.161 127.233C115.718 131.025 114.411 134.748 112.793 138.478C111.542 141.373 112.017 144.516 110.614 147.306C109.864 148.801 109.091 149.47 108.149 149.704C103.393 145.51 99.2756 140.873 95.4626 135.234Z" fill="#61A304"/>
<path opacity="0.6" d="M49.373 20.868C48.2527 18.7259 46.2603 16.4269 44.5615 14.7396C44.3781 14.5513 44.1468 14.37 43.8855 14.1832C43.7673 13.0288 44.5563 12.6119 47.4731 13.7423C47.7507 13.8388 48.0051 13.9778 48.2472 14.099C48.0821 14.24 47.9417 14.4165 47.8683 14.6517C47.5014 15.8275 49.1624 17.7254 49.7912 18.6302C50.8215 20.1507 51.3012 21.7118 51.8973 23.4024C54.0383 29.3607 55.4991 35.4759 57.6524 41.4519C58.7675 44.571 59.9746 55.5459 63.1626 57.0666C66.0538 58.4252 65.8568 54.4313 65.9999 51.9112C66.1655 49.0071 65.2287 47.0533 64.8876 44.2908C64.5366 41.3248 64.8018 38.2989 64.0382 35.3828C63.1137 31.8944 61.7161 29.0504 60.3766 25.7978C63.8007 28.6805 64.7013 35.5797 65.6339 39.7992C66.9536 45.7493 67.4776 51.4631 66.9404 57.4671C66.5255 62.3599 66.0161 66.3975 67.9935 71.0223C68.3201 71.7951 68.6131 73.6175 69.6704 73.4353C71.1157 73.1676 71.3469 70.2442 71.8957 69.1788C73.0712 67.0463 74.3537 65.1815 75.2856 62.8499C76.9209 58.7666 77.9324 54.3537 79.2901 50.1739C80.4547 46.5493 80.9018 42.0814 80.2173 38.2946C81.7963 47.1167 81.3676 55.0186 77.6259 63.3021C76.4185 65.9567 75.6544 68.9083 74.3199 71.4934C72.9444 74.1332 71.6005 76.8563 71.9299 79.9426C72.2493 82.8254 73.6977 85.8182 74.7698 88.5725C76.2278 92.3742 77.8608 91.5815 79.9011 88.6112C83.4054 83.5448 84.8186 77.5898 87.8649 72.3944C90.6441 67.6476 90.9988 61.1917 92.2753 55.9106C93.3431 51.6165 93.4151 47.5934 92.9204 43.7011C93.0244 43.813 93.1285 43.9248 93.2325 44.0367C93.3489 44.1663 93.4653 44.2959 93.5763 44.4556C96.7371 52.9414 93.9017 62.2264 91.992 71.026C91.6739 71.9312 91.338 72.8487 91.0021 73.7662C88.861 79.2798 86.6012 84.8495 84.895 90.5345C83.7009 94.4954 81.7388 98.4112 84.4607 102.177C85.4826 103.571 87.1884 105.306 88.9963 104.576C89.8347 104.23 90.7429 103.152 91.2992 102.476C96.5053 96.1479 98.7749 87.677 101.868 80.2391C103.809 75.5745 105.575 70.7694 106.954 65.864C106.991 65.9172 107.01 65.9828 107.03 66.0483C107.042 66.0661 107.054 66.0838 107.049 66.1139C108.282 71.9398 106.086 77.6762 104.352 83.1699C103.454 86.0043 102.699 89.1595 101.421 91.8633C100.259 94.3552 99.2163 96.8687 98.0838 99.3659C96.411 103.054 94.672 106.42 93.3916 110.257C91.6965 115.277 90.2604 123.773 96.0503 126.88C99.8296 128.911 104.453 122.54 106.451 120.152C111.015 114.717 113.462 106.729 115.586 100.017C116.06 98.503 116.504 96.9841 116.918 95.4597C117.114 96.271 117.322 97.1001 117.505 97.8937C117.962 99.8388 116.792 102.888 116.525 104.889C116.147 107.678 114.231 110.22 113.137 112.848C110.983 118.003 108.261 124.498 104.415 128.618C102.742 130.413 97.6288 136.913 102.99 137.66C108.488 138.417 113.998 132.299 116.881 127.664C115.513 131.299 114.228 134.902 112.68 138.504C111.429 141.399 111.903 144.542 110.501 147.333C109.75 148.828 108.978 149.496 108.036 149.73C103.859 146.029 100.196 141.97 96.778 137.241C93.7003 132.434 90.7645 127.528 87.9475 122.565C87.7117 122.15 87.4759 121.735 87.2402 121.32C86.9235 120.751 86.5891 120.194 86.2724 119.625C85.2291 117.745 84.1558 115.86 83.1303 113.968C79.3533 107.094 75.2672 100.041 72.338 92.6832C71.8781 91.5293 71.436 90.3631 71.0418 89.19C67.1267 77.65 63.1328 66.3753 60.0753 54.555C58.4296 48.1737 56.9646 41.2194 54.7514 34.6273C53.3695 29.7991 51.6189 25.122 49.373 20.868Z" fill="#468E02"/>
<path opacity="0.31" d="M105.927 133.066C104.772 130.344 110.663 122.54 111.938 120.286C116.965 111.504 119.424 103.533 115.099 93.7507C113.771 90.7796 112.436 88.7076 109.759 91.5943C106.407 95.2133 103.902 105.505 102.578 110.187C101.939 112.447 99.0431 125.432 94.8139 120.898C92.5494 118.473 95.7162 111.141 96.4207 108.52C98.0716 102.453 99.9567 96.7225 102.971 91.1022C104.816 87.6621 109.297 82.2592 109.358 78.2962C109.444 73.4218 101.601 63.9536 98.6005 71.8273C96.4378 77.4611 94.5866 83.0889 92.1463 88.6263C91.3257 90.5121 86.9645 102.41 84.891 99.0096C83.4492 96.67 86.5811 89.7048 87.1861 87.2057C88.7531 80.8282 90.5732 73.9064 93.1055 67.8578C94.6866 64.0752 97.7711 58.064 93.8961 54.4947C90.967 51.7943 89.0415 54.8163 87.5891 57.1939C83.9525 63.1679 83.2936 73.7294 77.4145 78.1045C72.6871 81.6002 74.4399 75.2251 75.1231 72.1192C76.0922 67.6832 77.7245 63.4441 79.1817 59.1425C80.3424 55.6258 84.1133 46.059 78.3111 44.4869C76.4334 47.5021 75.9068 58.7083 70.7316 58.5686C67.6732 58.4839 69.8672 51.9863 69.8996 50.2535C70.0378 45.0005 69.2004 33.6108 64.0913 30.6887C59.1994 34.6672 67.4095 43.9065 62.9146 48.2668C59.52 45.0479 58.4757 40.3271 57.0565 36.0511C55.7582 32.1384 53.4699 27.8613 50.9214 24.0806C50.4207 22.9815 49.9146 21.9124 49.3606 20.8502C48.2404 18.7082 46.248 16.4092 44.5492 14.7219C44.3657 14.5336 44.1345 14.3523 43.8731 14.1655C43.7549 13.011 44.544 12.5942 47.4608 13.7246C51.2896 15.2209 53.3626 18.2795 56.2941 20.7941C59.2681 23.3319 62.9682 24.6809 66.5704 26.2295C69.9905 27.6678 73.2556 29.4508 76.56 31.1011C98.1027 41.7309 108.823 66.4332 115.022 88.2261C118.083 98.9914 120.911 110.103 118.839 121.015C118.047 122.223 116.749 122.968 114.478 122.73C114.813 125.445 107.785 137.406 105.927 133.066Z" fill="#A3CE24"/>
<path d="M54.6284 33.8445C54.5006 33.4334 54.3728 33.0223 54.2272 32.6235C57.224 37.2766 58.8075 44.78 60.3552 49.8087C61.6403 53.9674 61.5923 60.789 63.982 64.4169C66.0163 61.1351 65.9007 54.5323 65.6218 50.6479C67.2152 55.2501 66.8682 59.9379 66.367 64.7065C65.9199 69.1744 65.3932 74.1712 68.9466 77.5429C72.8473 75.6215 73.3785 69.3059 75.6342 66.0018C75.0753 72.1261 70.7447 79.7138 70.5878 82.1383C70.3548 85.5891 76.3365 95.8245 79.3561 97.9358C80.5938 96.2337 80.3947 93.3726 81.0319 91.2984C81.6799 89.1642 82.816 87.1643 83.2836 84.9976C83.413 90.1436 81.9744 94.1691 81.1948 99.105C80.3664 104.311 83.0715 109.378 85.7069 113.624C92.2921 109.811 92.8281 100.019 98.2446 95.2812C98.7355 99.2814 94.9822 104.179 93.4444 107.721C91.8155 111.51 90.1796 115.252 90.4428 119.568C90.651 122.897 91.8672 127.524 95.414 128.69C99.1181 129.931 104.514 125.656 106.838 123.093C105.092 127.359 98.0358 130.684 98.6148 135.833C99.0717 139.936 102.335 141.641 106.237 141.008C109.756 140.43 111.813 137.711 114.031 135.223C113.602 136.31 113.186 137.415 112.71 138.509C111.459 141.404 111.933 144.548 110.531 147.338C109.78 148.833 109.008 149.501 108.066 149.735C105.254 147.242 102.679 144.559 100.25 141.669C94.8863 132.399 88.7622 123.473 83.2072 114.23C78.5864 106.18 74.0143 97.8592 71.0895 89.1831C67.1745 77.6431 63.1806 66.3684 60.1231 54.5481C58.4843 48.2146 56.8966 41.4245 54.8639 34.8648C54.851 34.5055 54.7424 34.1599 54.6284 33.8445Z" fill="#4A8209"/>
<path opacity="0.24" d="M45.451 95.1867C46.1975 100.009 47.4823 104.773 49.755 109.482C56.2934 123.093 74.6179 142.116 91.6816 138.388C91.493 132.968 80.372 125.067 76.9932 120.811C68.3675 109.914 63.0976 96.4999 58.9828 83.3095C55.0851 70.8103 57.8216 52.0693 46.82 42.9019C40.2044 47.3152 42.8844 58.2137 43.5446 64.4643C44.58 74.9271 43.8849 85.1717 45.451 95.1867Z" fill="#CCEA86"/>
<path opacity="0.2" d="M95.6898 57.9843C95.4122 57.8878 95.2002 57.772 94.9882 57.6562C94.9403 57.6632 94.9103 57.6578 94.8625 57.6647C95.1415 57.8391 95.4014 57.9479 95.6898 57.9843Z" fill="#CCEA86"/>
<path opacity="0.2" d="M104.819 69.5314C103.211 67.8603 101.029 67.2192 100.492 64.5924C100.155 62.9327 101.233 61.3415 100.254 59.7062C99.2386 58.0176 96.6779 57.3239 94.9881 57.6562C93.2165 56.5457 94.2062 54.4108 93.2261 52.6976C92.4625 51.3338 90.5056 50.5625 89.5932 49.2496C87.6011 46.3452 88.7561 41.9116 86.7099 39.3079C84.4926 36.5338 80.5637 37.9223 78.0403 36.6765C75.789 35.5572 75.515 32.8534 73.4165 31.5754C70.857 30.0126 68.5264 31.9216 66.3747 30.6806C63.011 28.7557 60.7011 26.1512 56.9871 24.7066C54.7527 23.8387 52.7147 23.5185 50.6156 23.4512C50.215 22.5719 49.8144 21.6926 49.3606 20.8502C48.2404 18.7082 46.248 16.4092 44.5492 14.7219C44.3657 14.5336 44.1345 14.3523 43.8731 14.1655C43.7549 13.011 44.544 12.5942 47.4608 13.7246C51.2896 15.2209 53.3626 18.2795 56.2941 20.7941C59.2681 23.3319 62.9682 24.6809 66.5703 26.2295C69.9905 27.6678 73.2556 29.4508 76.56 31.1011C98.1027 41.7309 108.823 66.4332 115.022 88.2261C115.227 88.8994 115.402 89.5673 115.589 90.2529C113.843 85.2041 111.282 80.4587 108.705 75.8035C107.542 73.6383 106.495 71.2611 104.819 69.5314Z" fill="#CCEA86"/>
<path opacity="0.25" d="M49.5007 99.4238C50.4126 101.948 51.7827 103.995 52.8365 106.42C53.9342 108.946 53.2249 111.938 54.7677 114.234C56.0323 116.092 58.5635 117.122 60.2262 118.492C62.5596 120.449 64.4524 122.87 66.8105 124.862C69.059 126.772 71.2829 128.647 73.7005 130.309C75.055 131.236 77.2925 133.812 78.8114 134.256C80.0652 134.621 80.7815 134.781 81.5781 133.201C83.2245 130.005 79.1622 126.355 77.1942 124.697C73.4964 121.61 68.7145 119.802 66.0275 115.671C63.8721 112.38 63.0342 108.41 62.1707 104.669C60.9809 99.5496 59.7496 94.1432 58.2375 89.0898C56.827 84.3342 53.9228 81.0638 53.2728 75.9639C52.9886 73.6618 52.3107 72.0806 51.8343 70.07C51.2933 67.8148 50.7154 45.6676 47.1178 47.4573C44.1551 48.9111 46.3877 61.7782 46.4326 64.7202C46.5521 71.2149 47.7326 78.0248 47.0417 84.4514C46.4716 89.6888 47.7333 94.4953 49.5007 99.4238Z" fill="#CCEA86"/>
</g>
<defs>
<filter id="filter0_f_95_6322" x="-4" y="-4" width="156.14" height="174.12" filterUnits="userSpaceOnUse" color-interpolation-filters="sRGB">
<feFlood flood-opacity="0" result="BackgroundImageFix"/>
<feBlend mode="normal" in="SourceGraphic" in2="BackgroundImageFix" result="shape"/>
<feGaussianBlur stdDeviation="2" result="effect1_foregroundBlur_95_6322"/>
</filter>
<clipPath id="clip0_95_6322">
<rect width="148.781" height="77.0047" fill="white" transform="translate(84.9054 166.12) rotate(-124.797)"/>
</clipPath>
</defs>
</svg>
