<svg width="64" height="57" viewBox="0 0 64 57" fill="none" xmlns="http://www.w3.org/2000/svg">
<path d="M52.7203 38.8521C52.685 40.3986 52.6901 41.903 52.5839 43.4493C52.5035 44.649 53.0746 45.7181 52.9262 46.8994C52.734 48.4244 51.9021 48.2836 50.3866 48.5443C48.5673 48.8608 46.7444 49.0834 44.9367 49.398C42.5033 49.8212 39.8788 49.6914 37.4998 49.0078C32.8165 47.6637 28.7551 44.9306 25.3974 41.4149C19.1301 34.847 15.4083 25.0159 15.0582 15.9829C14.9768 13.9775 14.75 11.0869 13.5168 9.40047C12.6482 8.20905 10.5637 6.87493 13.2152 6.95305C14.7817 7.00274 15.9164 7.8376 17.2903 8.36756C18.6824 8.90043 20.1839 8.91357 21.6756 9.01096C23.0879 9.09189 24.4883 9.31642 25.886 9.48828C34.9817 10.5623 41.9822 18.0723 46.9872 25.113C49.9326 29.2454 52.8266 33.6047 52.7203 38.8521Z" fill="#78AF02"/>
<path opacity="0.42" d="M46.7388 49.1198C46.1391 49.2065 45.5347 49.2998 44.9436 49.4028C42.5102 49.826 39.8857 49.6963 37.5067 49.0126C32.8234 47.6685 28.7619 44.9354 25.4043 41.4197C19.1303 34.8471 15.4085 25.016 15.0584 15.983C14.977 13.9775 14.7502 11.0869 13.517 9.4005C12.6484 8.20909 10.5639 6.87496 13.2154 6.95309C14.4075 6.98752 15.3573 7.48678 16.3425 7.95069C18.0392 9.65544 18.8507 11.9011 20.4022 13.8362C21.04 14.6287 21.722 15.3313 22.2936 16.1878C22.4348 16.4008 23.5597 18.9727 23.4286 18.9293C21.7369 18.3335 20.6202 17.1769 19.4752 15.8479C18.4906 14.705 17.1342 12.484 15.5798 12.149C14.0429 15.3351 18.8492 18.1466 20.4477 20.0445C18.8539 19.3972 17.8522 17.8263 16.3285 17.0671C16.8539 18.002 16.3813 19.4373 16.8489 20.5234C17.3317 21.6306 18.1643 22.279 19.2952 22.6954C21.0757 23.3651 22.755 23.9217 24.5307 24.2026C26.4155 24.5011 28.4577 23.8883 30.0816 25.1859C28.8191 26.5207 25.3458 25.3556 23.8911 24.9806C23.0594 24.7689 16.7776 22.7133 16.8376 22.4319C15.7246 27.768 23.4299 30.0443 27.1549 30.0819C28.396 30.0906 29.6411 29.9806 30.8813 29.9481C31.522 29.9314 33.6929 30.3541 34.1647 30.0641C30.6182 32.2639 25.6394 31.5291 21.9569 30.1327C21.1016 29.8128 20.2474 29.3923 19.378 29.3462C17.6603 33.2645 23.3393 34.3093 25.8161 34.546C27.8487 34.7375 29.9262 35.3467 31.9757 35.2463C33.4458 35.176 34.8229 34.3596 36.2693 34.1811C34.6191 35.491 32.0326 35.9158 29.9726 35.9884C27.5008 36.0697 24.9431 34.8015 22.4926 35.1921C21.869 36.8942 25.5231 39.3755 26.7551 39.9759C29.1425 41.1422 32.4686 41.0151 35.0665 41.0548C36.5335 41.0736 37.9552 40.421 39.3247 39.9541C40.1413 39.6783 42.5873 39.5482 43.1429 39.0851C41.8696 40.1383 39.89 40.6641 38.2938 41.0089C37.2734 41.2296 36.2444 41.434 35.2052 41.5397C34.2809 41.6266 32.9516 41.2605 32.1026 41.4825C29.7723 42.1014 31.1999 43.7854 32.7388 44.1701C36.1459 45.0037 39.3634 45.042 42.7615 44.419C41.0706 44.7262 39.7004 45.4766 37.8032 45.5343C35.9109 45.5854 34.1333 44.8974 32.1932 45.2691C32.2973 47.4125 39.6024 48.0428 41.0902 48.188C42.8173 48.353 44.4947 48.1071 46.1334 47.59C46.9911 47.3134 48.4921 46.3526 49.5929 46.1187C49.9014 46.0563 50.1715 46.0473 50.3858 46.1302C50.6001 46.2131 47.7379 48.5897 47.3726 48.7737C47.1607 48.8852 46.944 49.0035 46.7388 49.1198Z" fill="#A3CE24"/>
<path opacity="0.42" d="M37.5067 49.0126C32.8234 47.6685 28.7619 44.9354 25.4043 41.4197C19.1303 34.847 15.4085 25.016 15.0584 15.9829C14.977 13.9775 14.7502 11.0869 13.517 9.40049C12.6484 8.20907 10.5639 6.87494 13.2154 6.95307C14.7159 6.9959 15.8162 7.76556 17.1126 8.29054C18.2299 9.16367 19.1517 10.1397 19.6262 11.5553C19.6614 11.6616 19.6984 11.7795 19.7288 11.8926C20.4058 14.3256 18.5973 13.7371 17.1049 14.3187C14.7461 15.2314 17.4067 17.4862 18.7416 18.2823C19.8528 18.938 22.0848 19.0496 22.7111 20.2395C20.9354 21.5405 18.6487 19.9091 16.8421 19.3321C16.1843 22.9465 22.0014 23.8978 24.6389 23.7834C27.8118 23.6579 25.5276 25.3848 23.8237 25.9361C22.7254 26.2936 21.7877 26.3708 20.6359 26.2944C19.8125 26.2407 18.6105 25.895 17.8956 26.1423C19.6614 27.7648 21.5481 28.8658 23.9942 29.5266C25.2622 29.8792 27.0223 30.2807 28.383 30.3347C29.5885 30.3788 30.9726 29.8209 32.0589 30.4689C31.7959 31.9229 28.0814 32.3086 26.914 32.3528C24.105 32.4658 22.0484 31.9122 19.4294 31.0968C19.4459 32.2038 20.9406 33.4695 21.8116 34.0643C23.0736 34.9196 24.6986 34.9302 26.167 35.1731C27.8853 35.4635 29.6944 35.7685 31.4281 35.6136C32.4807 35.5175 34.9886 34.3264 35.8148 34.8283C35.2475 36.226 32.6625 37.1995 31.3446 37.6934C28.9983 38.5745 26.1421 38.4002 23.8269 37.4581C23.8515 38.3985 26.03 39.6582 26.8103 40.0967C30.8385 42.3394 35.4889 41.3986 39.7238 40.0479C40.7617 39.7181 41.9682 38.9415 41.3714 40.6628C41.0416 41.6024 40.1622 42.1777 39.2439 42.5529C36.4832 43.7146 33.3654 42.8453 30.5149 43.1009C31.8991 43.7295 33.5941 44.4901 35.1279 44.6278C37.6969 45.5695 40.8003 44.015 43.2478 44.8999C41.7146 46.1316 39.8897 46.4136 37.9634 46.2577C36.6957 46.1589 35.0528 45.2127 33.8052 45.5239C32.528 45.834 32.7475 46.5594 33.7667 47.2302C35.4829 48.371 38.0544 47.8542 39.9821 48.2342C40.8541 48.4039 41.2214 48.1605 40.8635 49.2523C40.8279 49.3585 40.7692 49.4685 40.6971 49.5689C39.6162 49.4926 38.5412 49.3091 37.5067 49.0126Z" fill="#A3CE24"/>
<path opacity="0.42" d="M34.9452 44.5575C35.0083 44.5825 35.0696 44.5961 35.1327 44.6211C35.1739 44.6202 35.2237 44.6357 35.2648 44.6348C35.1567 44.5876 35.0524 44.5635 34.9452 44.5575Z" fill="#A3CE24"/>
<path d="M44.9436 49.4028C42.5102 49.826 39.8857 49.6963 37.5067 49.0126C37.0924 48.8977 36.6838 48.7464 36.2839 48.6114C36.7806 48.7246 37.2639 48.8282 37.6919 48.8819C39.9176 49.1716 43.2693 49.1642 45.1791 47.8176C45.6175 47.5036 45.9603 47.1108 46.2027 46.646C47.0262 45.0468 44.7905 44.5167 43.6827 44.4212C41.877 44.2809 40.0082 44.9066 38.2284 45.1398C36.0722 45.4172 32.4218 45.0073 30.1174 43.5558C33.7445 44.9022 42.5775 45.7066 43.7183 41.151C43.7715 40.9357 43.7099 40.6684 43.4726 40.5893C41.1395 39.8981 38.9912 40.8707 36.6435 41.1323C34.4011 41.3884 28.0442 40.7087 27.0705 40.2429C30.5217 40.6619 34.7561 40.3148 37.5665 38.773C39.2493 37.8414 38.061 35.7817 36.6728 35.2718C34.7611 34.5586 32.6204 35.5772 30.6058 35.4594C28.3127 35.3343 26.0667 35.101 23.827 34.6188C23.2345 34.4977 22.6691 34.2541 22.0846 34.0372C20.9967 33.6315 19.914 33.0773 19.4196 31.972C20.9914 33.4553 23.2211 33.6971 25.244 33.9021C27.4518 34.118 29.6547 34.3406 31.658 33.1321C32.3514 32.7171 34.4649 31.4964 33.7464 30.3925C33.1215 29.4267 30.2468 29.7866 29.2709 29.8466C27.135 29.9966 25.2627 29.6666 23.1837 29.2997C21.3296 28.9725 19.9454 28.3439 18.5725 26.9933C20.9824 28.3684 23.7318 28.7197 26.4596 28.5078C27.7593 28.4066 30.658 27.6177 29.4723 25.6814C28.4927 24.0655 25.7805 24.5523 24.233 24.5467C21.9146 24.5555 19.4328 23.2099 17.4752 22.1088C18.7665 22.3158 19.9726 22.9383 21.2998 22.9682C21.9921 22.9785 23.4217 23.0212 23.9828 22.6634C25.2267 21.8629 23.7875 21.4381 23.0632 21.1616C21.0052 20.3839 19.4199 19.3574 17.7542 17.9486C16.3971 16.802 15.6668 15.4462 15.1489 13.7663C15.7938 15.6084 17.2981 16.4652 18.8173 17.4848C19.9436 18.2325 21.3696 19.3678 22.8031 18.5716C23.1224 18.3952 23.1942 18.041 23.5123 17.9652C24.0795 17.8248 24.5514 18.3258 24.9663 18.6237C25.3544 18.9023 25.7688 19.0172 26.1694 19.2643C27.1763 19.8958 27.1072 21.1645 27.623 22.1128C28.1932 23.1407 29.1393 23.9416 29.9446 24.7834C30.9505 25.8401 31.9467 26.9102 32.9411 27.9688C34.8944 30.0505 36.8401 32.1571 38.8049 34.2369C41.4241 37.0298 43.9847 39.8618 46.4436 42.7931C48.1825 44.8628 49.4227 46.0168 51.947 46.7946C52.1776 46.8689 52.5174 46.9607 52.904 47.0861C52.6672 48.3764 51.843 48.2816 50.4079 48.5291C48.5742 48.8656 46.7513 49.0882 44.9436 49.4028Z" fill="#6D9E02"/>
<path d="M45.9435 44.4926C44.2983 43.2812 42.8117 41.8489 41.2645 40.5151C37.8595 37.5738 34.1453 34.583 31.3489 31.0341C28.4714 27.3865 25.5993 23.8441 22.9942 19.9864C20.5589 16.3724 18.012 12.2218 14.8177 9.26952C14.1422 8.64259 13.1333 8.07042 12.3078 7.68062C12.2179 7.63636 12.1116 7.60068 11.9939 7.56688C11.8043 7.16711 12.0347 6.91676 13.2269 6.95119C14.7934 7.00088 15.9281 7.83574 17.302 8.36569C18.694 8.89856 20.1956 8.91171 21.6873 9.0091C23.0996 9.09002 24.5 9.31456 25.8977 9.48642C34.9934 10.5605 41.9939 18.0704 46.9989 25.1112C49.9395 29.2503 52.8335 33.6095 52.7205 38.8521C52.6852 40.3986 52.6903 41.903 52.5841 43.4493C52.5037 44.649 53.0748 45.7181 52.9264 46.8994C52.8474 47.5322 52.655 47.8708 52.3462 48.075C50.1027 47.1743 48.0322 46.0327 45.9435 44.4926Z" fill="#61A304"/>
<path opacity="0.6" d="M14.8062 9.27141C14.1307 8.64449 13.1217 8.07231 12.2963 7.68251C12.2063 7.63825 12.1001 7.60256 11.9824 7.56877C11.7928 7.16899 12.0232 6.91865 13.2154 6.95308C13.3274 6.95239 13.4366 6.96989 13.539 6.98258C13.4976 7.0543 13.4697 7.13563 13.4733 7.22949C13.4913 7.69876 14.33 8.16902 14.6713 8.41403C15.2353 8.82906 15.6066 9.32886 16.0363 9.8604C17.565 11.7285 18.8693 13.7397 20.4047 15.6126C21.2029 16.5913 23.0354 20.3811 24.3747 20.5212C25.5868 20.6409 25.007 19.2309 24.7372 18.3071C24.4266 17.2425 23.841 16.6598 23.3663 15.7106C22.8622 14.6896 22.5718 13.5685 21.9258 12.618C21.149 11.4823 20.2843 10.6385 19.3885 9.64045C20.9863 10.2399 22.1891 12.6042 23.062 14.0015C24.2946 15.9714 25.2111 17.9577 25.7832 20.1836C26.2577 21.9946 26.5893 23.5104 27.8893 24.9202C28.1051 25.1563 28.4426 25.7738 28.7993 25.5735C29.2846 25.2932 28.9951 24.2132 29.0565 23.7604C29.2071 22.8444 29.4303 22.0108 29.468 21.0542C29.5352 19.3786 29.3362 17.664 29.2914 15.989C29.2479 14.5381 28.8391 12.8757 28.1105 11.6023C29.8023 14.571 30.6553 17.4651 30.3665 20.9185C30.271 22.0262 30.3726 23.1842 30.2226 24.2832C30.0647 25.4071 29.9289 26.5568 30.4406 27.6239C30.9228 28.619 31.8247 29.5098 32.5609 30.3629C33.5694 31.5431 34.0551 31.0502 34.4097 29.7228C35.0232 27.4557 34.7721 25.1357 35.2045 22.8806C35.5982 20.8208 34.9028 18.4558 34.6884 16.3954C34.5249 14.7163 34.038 13.2615 33.3642 11.926C33.4158 11.9529 33.4675 11.9798 33.5191 12.0068C33.5774 12.0385 33.6358 12.0703 33.696 12.1135C35.9133 14.7599 36.0778 18.4576 36.5131 21.8629C36.5142 22.2287 36.5104 22.6012 36.5066 22.9737C36.44 25.2278 36.3378 27.5172 36.4493 29.7774C36.525 31.3529 36.319 33.01 37.777 34.0161C38.322 34.387 39.156 34.7931 39.7126 34.3003C39.9698 34.0692 40.1587 33.566 40.2724 33.2521C41.3366 30.3148 41.0726 26.9817 41.236 23.9148C41.3392 21.9912 41.361 20.0397 41.2316 18.1012C41.2517 18.1156 41.2669 18.1367 41.2822 18.1578C41.2889 18.1626 41.2956 18.1674 41.2975 18.1789C42.4832 20.1151 42.4249 22.4563 42.5021 24.6514C42.5406 25.7843 42.6717 27.0142 42.557 28.1487C42.4568 29.1923 42.4026 30.2283 42.314 31.2699C42.183 32.8085 41.9871 34.2397 42.016 35.7815C42.0466 37.8012 42.6135 41.0373 45.0899 41.4157C46.7067 41.6638 47.5563 38.7853 47.9697 37.6726C48.9171 35.1381 48.7781 31.9556 48.6859 29.2731C48.6634 28.6688 48.6294 28.0664 48.5839 27.4659C48.7575 27.7325 48.9379 28.0039 49.1048 28.2658C49.517 28.9064 49.4853 30.1513 49.6444 30.9043C49.8641 31.9544 49.4994 33.1122 49.4412 34.1961C49.3241 36.3227 49.1741 39.0036 48.3172 40.9743C47.9445 41.8324 46.9358 44.8196 48.9573 44.405C51.0296 43.9761 52.2297 41.0755 52.6751 39.0426C52.6466 40.523 52.6441 41.9814 52.5467 43.4732C52.4663 44.6729 53.0374 45.742 52.889 46.9233C52.81 47.5561 52.6176 47.8946 52.3088 48.0988C50.3361 47.3012 48.5027 46.3096 46.6719 45.046C44.9533 43.7108 43.2731 42.3221 41.6284 40.898C41.4908 40.779 41.3532 40.6599 41.2156 40.5408C41.0292 40.3766 40.8381 40.2191 40.6518 40.0549C40.0373 39.5124 39.4114 38.9718 38.8017 38.4226C36.5685 36.4341 34.2013 34.4203 32.211 32.1499C31.8987 31.7939 31.5912 31.4312 31.3 31.0599C28.4225 27.4122 25.5504 23.8699 22.9453 20.0122C21.5406 17.9289 20.1279 15.6167 18.4925 13.5301C17.3806 11.9713 16.1554 10.5138 14.8062 9.27141Z" fill="#468E02"/>
<path opacity="0.31" d="M49.4275 42.3798C48.6653 41.5487 49.7875 37.9939 49.9583 37.0213C50.6453 33.2251 50.5131 30.0474 47.7124 27.0836C46.8565 26.1853 46.1129 25.6109 45.5187 26.9894C44.7754 28.7171 45.1872 32.7343 45.3082 34.5856C45.3664 35.4792 45.9807 40.5139 43.8833 39.4239C42.7604 38.8409 42.964 35.8029 42.8831 34.7714C42.703 32.3807 42.6501 30.0814 43.0168 27.6777C43.2415 26.2064 44.1629 23.6939 43.6799 22.2621C43.0894 20.4996 39.0645 18.097 38.9898 21.3086C38.9308 23.6087 38.9828 25.8668 38.8117 28.1676C38.7572 28.9498 38.7064 33.7808 37.528 32.8233C36.7117 32.1664 36.9494 29.2644 36.8483 28.2893C36.5986 25.798 36.3704 23.0788 36.5094 20.5826C36.5955 19.0219 36.9377 16.4688 35.0904 15.6801C33.6937 15.0831 33.387 16.4144 33.1681 17.4538C32.6228 20.0639 33.732 23.943 32.1771 26.2644C30.924 28.123 30.7413 25.6088 30.5909 24.4057C30.3738 22.6882 30.4201 20.9569 30.3954 19.2255C30.3643 17.8139 30.5 13.8957 28.2148 14.0703C27.9243 15.393 29.1633 19.4869 27.2859 20.0962C26.1762 20.4556 26.1364 17.8412 25.9272 17.2144C25.3074 15.3092 23.5549 11.3233 21.3466 10.9245C20.0959 12.9775 24.2235 15.2511 23.1641 17.3908C21.534 16.6668 20.5572 15.1035 19.5022 13.7479C18.537 12.5074 17.1696 11.2622 15.7721 10.2285C15.4521 9.89732 15.1339 9.57768 14.7995 9.26662C14.124 8.63969 13.1151 8.06751 12.2896 7.67772C12.1997 7.63345 12.0934 7.59777 11.9757 7.56397C11.7861 7.1642 12.0165 6.91385 13.2087 6.94829C14.7752 6.99798 15.9099 7.83284 17.2838 8.36279C18.6759 8.89566 20.1774 8.9088 21.6691 9.0062C23.0814 9.08712 24.4818 9.31165 25.8795 9.48352C34.9752 10.5576 41.9757 18.0675 46.9807 25.1083C49.4526 28.5864 51.885 32.2187 52.531 36.404C52.4004 36.939 52.0288 37.372 51.1828 37.5758C51.6488 38.5087 50.6482 43.7023 49.4275 42.3798Z" fill="#A3CE24"/>
<path d="M18.3485 13.2644C18.2502 13.133 18.1518 13.0016 18.0487 12.8769C19.7186 14.1669 21.2439 16.6613 22.4409 18.271C23.4327 19.6016 24.2849 22.0589 25.6059 23.058C25.9187 21.6194 25.0356 19.2616 24.4403 17.9013C25.5994 19.352 26.0722 21.0806 26.4999 22.858C26.9086 24.5205 27.3562 26.3831 29.0628 27.1418C30.2195 25.9542 29.6055 23.6171 29.9949 22.1424C30.5746 24.4143 29.9856 27.6927 30.2382 28.5839C30.5943 29.8535 34.0481 32.7691 35.4023 33.1429C35.6301 32.3735 35.1939 31.3708 35.1585 30.5443C35.1193 29.6948 35.2727 28.8314 35.1646 27.9932C35.8669 29.8258 35.8631 31.4557 36.212 33.3287C36.5779 35.3051 38.1956 36.7808 39.6838 37.9708C41.564 35.7613 40.5086 32.1744 41.8512 29.7817C42.5374 31.1565 41.8129 33.3946 41.7117 34.8634C41.6093 36.4327 41.4984 37.9856 42.1431 39.5031C42.6421 40.6725 43.6689 42.1803 45.092 42.1473C46.5811 42.1212 47.975 39.8971 48.4835 38.6802C48.3998 40.4353 46.2881 42.5294 47.1524 44.3059C47.8395 45.7219 49.2295 45.9187 50.5508 45.194C51.7417 44.538 52.1344 43.2989 52.6141 42.1221C52.5987 42.5674 52.5899 43.0174 52.5582 43.4713C52.4778 44.671 53.0489 45.7401 52.9005 46.9214C52.8214 47.5542 52.6291 47.8927 52.3203 48.0969C50.9924 47.5594 49.7251 46.9234 48.4838 46.1946C45.375 43.5471 42.0368 41.1202 38.8628 38.507C36.1764 36.2033 33.473 33.7962 31.3163 31.0513C28.4388 27.4036 25.5667 23.8613 22.9616 20.0036C21.5655 17.9366 20.1296 15.6991 18.5632 13.6011C18.5127 13.4736 18.4297 13.3633 18.3485 13.2644Z" fill="#4A8209"/>
<path opacity="0.24" d="M22.8688 36.4762C23.7516 38.1139 24.8205 39.662 26.2373 41.0645C30.3214 45.122 39.3305 49.6222 44.9868 46.1078C44.2282 44.1841 39.2252 42.7626 37.4687 41.6638C32.9803 38.8474 29.3771 34.699 26.2174 30.4838C23.2239 26.4892 21.8186 19.4062 16.697 17.5142C14.8823 19.9432 17.2344 23.5178 18.2682 25.6797C19.9737 29.3074 21.0296 33.0771 22.8688 36.4762Z" fill="#CCEA86"/>
<path opacity="0.2" d="M36.1797 16.7054C36.0676 16.7061 35.9767 16.6915 35.8858 16.6769C35.8695 16.6855 35.858 16.6874 35.8417 16.696C35.9642 16.7231 36.0714 16.7291 36.1797 16.7054Z" fill="#CCEA86"/>
<path opacity="0.2" d="M40.9319 19.691C40.1409 19.2956 39.2751 19.3433 38.7476 18.4677C38.4147 17.9144 38.5993 17.2053 38.0393 16.7424C37.4591 16.2651 36.4506 16.3421 35.8857 16.6769C35.1076 16.5037 35.1911 15.6104 34.6206 15.1197C34.1724 14.727 33.371 14.6992 32.8758 14.3437C31.7898 13.554 31.6398 11.8137 30.5727 11.1389C29.4224 10.4246 28.1875 11.4243 27.122 11.2983C26.1704 11.183 25.7274 10.2464 24.8104 10.0546C23.6915 9.81921 23.0974 10.8022 22.1661 10.6305C20.7121 10.3675 19.5501 9.72605 18.0314 9.68031C17.1179 9.65324 16.3448 9.79791 15.582 10.0412C15.326 9.77634 15.0699 9.51143 14.7995 9.2666C14.124 8.63967 13.1151 8.06749 12.2896 7.6777C12.1997 7.63344 12.0935 7.59775 11.9757 7.56396C11.7861 7.16418 12.0166 6.91383 13.2087 6.94827C14.7752 6.99796 15.9099 7.83282 17.2838 8.36277C18.6759 8.89564 20.1774 8.90878 21.6691 9.00618C23.0814 9.0871 24.4818 9.31163 25.8795 9.4835C34.9752 10.5575 41.9757 18.0675 46.9807 25.1082C47.1401 25.3241 47.288 25.5418 47.4426 25.7644C46.1718 24.1727 44.6468 22.7939 43.1274 21.4496C42.4336 20.8198 41.7545 20.099 40.9319 19.691Z" fill="#CCEA86"/>
<path opacity="0.25" d="M24.864 37.4826C25.5133 38.2732 26.2665 38.8343 26.9543 39.5713C27.6706 40.3391 27.7971 41.5048 28.6441 42.1331C29.3352 42.6394 30.3761 42.6869 31.1482 42.9674C32.236 43.3732 33.2247 44.0018 34.3259 44.4171C35.3774 44.817 36.4155 45.2073 37.4959 45.4962C38.1008 45.6566 39.233 46.2971 39.8355 46.2631C40.3325 46.2346 40.6103 46.2008 40.6952 45.5316C40.8794 44.1732 38.9546 43.3796 38.0361 43.0345C36.3139 42.3965 34.3653 42.3564 32.8732 41.2143C31.6793 40.3065 30.8723 38.9869 30.0852 37.7526C29.0052 36.0646 27.8737 34.2789 26.6863 32.6558C25.5733 31.1267 24.113 30.3217 23.2294 28.572C22.8339 27.781 22.3888 27.2992 21.9614 26.6375C21.4795 25.8961 18.4492 18.0116 17.3846 19.1132C16.5053 20.0131 18.9475 24.3521 19.3385 25.4036C20.2092 27.7221 21.5013 30.0186 22.0721 32.4159C22.5348 34.3706 23.6007 35.9369 24.864 37.4826Z" fill="#CCEA86"/>
</svg>
