<svg width="15" height="19" viewBox="0 0 15 19" fill="none" xmlns="http://www.w3.org/2000/svg">
<path d="M13.9209 8.36163C13.52 7.45929 12.9372 6.64939 12.209 5.98261L11.608 5.43123C11.5876 5.41302 11.563 5.4001 11.5365 5.3936C11.5099 5.3871 11.4822 5.38722 11.4557 5.39395C11.4292 5.40067 11.4047 5.41381 11.3845 5.43219C11.3642 5.45057 11.3488 5.47364 11.3395 5.49938L11.0711 6.26967C10.9038 6.7529 10.5961 7.24647 10.1604 7.73177C10.1315 7.76274 10.0984 7.771 10.0757 7.77307C10.053 7.77513 10.0179 7.771 9.9869 7.74209C9.95798 7.71731 9.94353 7.68014 9.94559 7.64297C10.022 6.39977 9.65028 4.99755 8.83663 3.47143C8.1634 2.20345 7.2279 1.21426 6.05905 0.524515L5.20616 0.0226918C5.09464 -0.0433919 4.95215 0.0433428 4.95834 0.173445L5.00377 1.1647C5.03475 1.84206 4.95628 2.44094 4.77042 2.93863C4.54325 3.54784 4.21696 4.11369 3.79981 4.6217C3.5095 4.97476 3.18047 5.2941 2.81888 5.57372C1.94803 6.24316 1.23992 7.10094 0.747572 8.08284C0.256433 9.07329 0.000599216 10.1638 0 11.2693C0 12.244 0.192056 13.1878 0.572037 14.0779C0.938938 14.9348 1.46842 15.7126 2.1312 16.3681C2.8003 17.0289 3.57678 17.5493 4.44206 17.9107C5.33832 18.2866 6.28828 18.4766 7.26921 18.4766C8.25013 18.4766 9.20009 18.2866 10.0963 17.9128C10.9595 17.5535 11.7444 17.0295 12.4072 16.3701C13.0763 15.7093 13.6008 14.937 13.9664 14.0799C14.3458 13.1923 14.5404 12.2367 14.5384 11.2714C14.5384 10.2636 14.3319 9.28473 13.9209 8.36163Z" fill="#E55C5C"/>
</svg>
