<svg width="23" height="27" viewBox="0 0 23 27" fill="none" xmlns="http://www.w3.org/2000/svg">
<g clip-path="url(#clip0_95_6341)">
<path d="M18.4654 22.6068C17.3342 24.383 15.4528 25.0958 13.4247 25.464C11.0908 25.8847 9.6043 25.0444 8.42377 22.9494C6.72097 19.8763 6.04305 15.7806 5.29567 12.3539C4.73065 9.76776 4.29875 6.70836 4.31999 4.094C4.33107 3.09767 3.97759 1.72452 4.47342 0.802427C6.0191 -2.10532 14.3164 6.69729 15.4163 7.90028C19.1005 11.9409 21.7248 17.4966 18.4654 22.6068Z" fill="#757575"/>
<path d="M18.4654 22.6068C19.7154 20.6398 20.0923 18.6043 19.8792 16.6167C19.4991 18.407 18.7852 19.2458 17.4726 20.3855C15.2457 22.2942 12.2008 19.9372 10.9861 17.6522C6.61563 9.4021 5.23675 2.16387 5.31995 0.22388C4.94554 0.262875 4.65611 0.440722 4.46362 0.800509C3.9776 1.72451 4.32127 3.09575 4.31019 4.09208C4.28895 6.70644 4.71893 9.77566 5.28587 12.352C6.04307 15.7806 6.71117 19.8744 8.41397 22.9475C9.5945 25.0425 11.081 25.8828 13.4149 25.4621C15.4509 25.1056 17.3342 24.383 18.4654 22.6068Z" fill="#575959"/>
<path d="M19.3592 20.7945C16.0231 19.5116 14.1193 16.2158 12.6707 12.9885C12.3674 12.2976 12.0426 11.6127 11.7276 10.9297C11.9854 11.5404 12.2432 12.1511 12.5127 12.7539C13.7394 15.4998 15.3836 21.1698 18.837 21.9559C19.045 21.5686 19.2119 21.1835 19.3592 20.7945Z" fill="#D1D1D1"/>
<path d="M10.4652 13.5871C9.61308 11.6887 7.1122 4.40467 6.62537 3.03605C6.53203 2.78349 6.4564 2.54458 6.38269 2.29585C6.74808 4.54756 8.73839 11.2632 9.79536 13.7824C11.5936 17.9847 14.2237 21.84 16.8217 24.2422C17.2167 23.9933 17.5722 23.6857 17.898 23.3213C14.1958 21.3047 11.987 16.9611 10.4652 13.5871Z" fill="#D1D1D1"/>
<path d="M5.42782 8.70156C5.90905 11.4038 6.39627 14.1276 7.35939 16.7099C8.65808 20.1831 10.5682 23.1336 13.1228 25.4968C13.2267 25.4865 13.3208 25.4743 13.4148 25.4621C14.3966 25.287 15.3544 25.0256 16.2016 24.6C15.5498 24.4422 14.9365 24.1391 14.4338 23.5825C12.3817 21.3072 10.8113 18.4433 9.59415 15.6484C8.1432 12.3289 6.73248 8.80339 5.80819 5.29127C5.35108 3.56166 5.43162 1.89625 5.53563 0.21503C5.31204 0.212143 5.12196 0.246363 4.94194 0.333488C4.51349 3.1027 4.95234 5.96988 5.42782 8.70156Z" fill="#959C9C"/>
<path d="M5.39857 5.77171C5.72488 12.7128 9.17087 19.9571 13.7538 25.3958C14.1673 25.3135 14.5532 25.2156 14.9312 25.106C11.8583 22.2138 9.36916 18.7324 7.80933 14.7702C6.71192 11.9885 5.6945 8.6925 5.36963 5.45021C5.36196 5.48947 5.36603 5.52083 5.36029 5.55027C5.38613 5.62664 5.40408 5.69127 5.39857 5.77171Z" fill="#D1D1D1"/>
<path opacity="0.41" d="M7.03261 2.46347C6.56368 1.99496 5.93105 0.90355 7.12126 1.27851C7.8892 1.5201 8.4984 2.20958 9.1203 2.67739C11.4662 4.43944 13.2902 6.57849 15.2085 8.75633C17.245 11.0591 20.0739 14.6272 18.9986 17.8916C18.5789 19.1546 17.7798 19.3858 16.8493 18.3585C15.5819 16.97 14.7982 15.034 13.9042 13.4025C12.2843 10.4271 10.9049 7.31517 8.8487 4.5908C8.28236 3.83836 7.67891 3.11944 7.03261 2.46347Z" fill="#A5AAAA"/>
<path d="M11.2044 5.93702C12.0879 6.9959 13.0811 8.01504 13.7788 9.19048C14.5852 10.54 15.6167 11.7805 16.4896 13.1023C16.8511 13.6517 17.1989 14.2188 17.5603 14.7682C17.7341 15.0263 18.1513 15.7598 18.3819 15.1527C18.5136 14.7913 17.9194 13.9723 17.771 13.6886C17.4051 13.0058 17.0803 12.3209 16.6753 11.6815C15.9976 10.6119 15.1634 9.61357 14.3939 8.59731C13.3718 7.25667 12.3561 6.03956 11.1193 4.91172C10.7746 4.58972 9.96743 3.505 9.48936 3.60527C9.58866 4.29711 10.5416 5.10463 10.9677 5.6361C11.0407 5.73186 11.1235 5.82953 11.2044 5.93702Z" fill="#A5AAAA"/>
</g>
<defs>
<clipPath id="clip0_95_6341">
<rect width="23.69" height="18.67" fill="white" transform="translate(22.8625 3.57672) rotate(101.045)"/>
</clipPath>
</defs>
</svg>
