<svg width="43" height="41" viewBox="0 0 43 41" fill="none" xmlns="http://www.w3.org/2000/svg">
<g clip-path="url(#clip0_95_6258)" filter="url(#filter0_f_95_6258)">
<path d="M27.5057 33.0221C25.787 34.2256 23.8753 35.0336 22.0972 34.6977C20.3904 34.3879 18.8604 32.9634 17.6665 31.8375C15.214 29.4673 13.8593 28.0796 12.1831 25.2061C10.866 22.9378 9.36064 20.6686 8.64951 18.1059C8.01985 15.9117 8.35743 13.5412 7.27056 11.4922C5.90978 8.93688 5.98216 8.51605 8.78784 7.8439C17.6058 5.68888 23.0586 6.07557 31.0508 10.6664C34.7133 12.7861 37.1564 14.516 36.3283 18.8625C35.6712 22.2955 33.8415 26.2095 31.7209 28.9605C30.6852 30.2501 29.2038 31.8382 27.5057 33.0221Z" fill="#FFC40C"/>
<path d="M24.7356 25.7121C26.4094 24.2619 27.9053 22.4487 28.4238 21.025C29.5979 17.875 24.7889 15.2023 22.4216 14.4486C19.1725 13.4145 15.6677 12.4904 12.3378 11.7521C13.7765 11.3546 15.2657 11.1515 16.7739 11.1181C20.0277 11.0292 23.3165 11.2512 26.4397 11.9278C29.8259 12.6596 34.068 13.5946 34.3996 17.9027C34.6224 20.9922 33.389 23.5649 32.179 26.2952C30.9702 28.9853 27.6699 31.0899 24.9202 31.9044C24.2365 32.1162 23.4798 32.0845 22.6746 31.9268C18.5383 31.071 16.9643 27.9908 15.3437 24.4465C14.8018 23.2328 14.4799 21.896 13.8035 20.7553C13.0819 19.5168 11.8208 17.9464 10.9439 16.3939C12.8217 17.7146 14.4112 20.1229 15.7617 21.9292C16.8769 23.4194 17.9941 24.978 19.4554 26.1471C21.4959 27.7981 22.8081 27.3409 24.7356 25.7121Z" fill="#FFFA50"/>
<path d="M11.0713 16.5623C10.013 15.3231 8.68893 13.2961 9.75685 12.1402C10.7499 11.079 13.5362 11.3483 14.7689 11.5534C16.6759 11.8684 18.5121 12.4151 20.3756 12.8498C21.8928 13.1991 23.2234 13.2093 24.5988 14.0219C27.1961 15.5505 29.3293 16.91 28.5828 20.1072C27.6428 24.169 21.6921 30.1462 17.426 26.316C15.9024 24.9481 15.8151 23.2631 15.01 21.5877C14.2319 19.9492 12.9855 18.5603 11.7193 17.2996C11.5487 17.102 11.3154 16.8544 11.0713 16.5623Z" fill="#FFE62E"/>
<path d="M22.0972 34.6977C20.3904 34.3879 18.8604 32.9634 17.6665 31.8375C15.214 29.4673 13.8593 28.0796 12.1831 25.2061C10.866 22.9378 9.36064 20.6686 8.64951 18.1059C8.34758 17.0474 8.26774 15.9342 8.14348 14.832C8.3143 15.4362 8.48949 16.0285 8.75467 16.5587C9.6793 18.5351 10.5929 20.6159 11.9132 22.357C11.9327 22.3776 11.9521 22.3983 11.9596 22.4146C13.921 26.0965 16.8279 29.6621 19.7885 30.415C24.7748 31.6753 30.1333 28.1385 32.1908 23.5621C35.1599 17.0005 30.893 12.5061 24.6563 10.6821C19.2506 9.09293 12.0997 7.4103 6.58107 9.42526C6.51286 9.42752 6.4728 9.42648 6.41648 9.43308C6.32844 8.6015 6.99935 8.27668 8.78784 7.8439C17.6058 5.68888 23.0586 6.07557 31.0508 10.6664C34.7133 12.7861 37.1564 14.516 36.3283 18.8625C35.6712 22.2955 33.8415 26.2095 31.7209 28.9605C30.709 30.2588 29.2157 31.8425 27.5295 33.0308C25.7751 34.2213 23.8753 35.0336 22.0972 34.6977Z" fill="#EF9818"/>
<path d="M28.5906 26.452C27.3653 27.7809 25.8138 28.7472 23.9977 29.4409C22.1728 30.1586 20.928 29.5427 22.9878 28.3279C26.3291 26.333 28.0704 25.1784 29.3108 21.4022C29.6519 20.4288 29.7556 17.5531 30.5812 17.2846C32.2215 18.7763 31.275 21.8194 30.508 23.5185C30.0021 24.6487 29.3644 25.6225 28.5906 26.452Z" fill="white"/>
<path d="M11.2339 14.0061C11.1793 14.2301 11.1484 14.4628 11.1632 14.6444C11.2226 15.2216 11.6532 15.8527 11.9846 16.3122C12.289 16.7347 12.7472 17.1048 12.8078 17.6418C12.2121 17.723 11.3529 16.5293 11.0441 16.1187C10.608 15.5398 10.1774 14.9087 9.94937 14.2023C9.7762 13.6785 9.73628 13.122 10.0351 12.6345C10.3208 12.183 10.7915 11.853 11.218 12.3471C11.5831 12.7511 11.3554 13.4135 11.2339 14.0061Z" fill="white"/>
</g>
<defs>
<filter id="filter0_f_95_6258" x="-5.99997" y="-4" width="50.7762" height="47.5614" filterUnits="userSpaceOnUse" color-interpolation-filters="sRGB">
<feFlood flood-opacity="0" result="BackgroundImageFix"/>
<feBlend mode="normal" in="SourceGraphic" in2="BackgroundImageFix" result="shape"/>
<feGaussianBlur stdDeviation="3" result="effect1_foregroundBlur_95_6258"/>
</filter>
<clipPath id="clip0_95_6258">
<rect width="31.6874" height="26.3065" fill="white" transform="translate(29.7745 37.5614) rotate(-159.99)"/>
</clipPath>
</defs>
</svg>
